<?xml version="1.0" encoding="utf-8" standalone="no"?>
<!DOCTYPE svg PUBLIC "-//W3C//DTD SVG 1.1//EN"
  "http://www.w3.org/Graphics/SVG/1.1/DTD/svg11.dtd">
<!-- Created with matplotlib (https://matplotlib.org/) -->
<svg height="288pt" version="1.1" viewBox="0 0 432 288" width="432pt" xmlns="http://www.w3.org/2000/svg" xmlns:xlink="http://www.w3.org/1999/xlink">
 <defs>
  <style type="text/css">
*{stroke-linecap:butt;stroke-linejoin:round;}
  </style>
 </defs>
 <g id="figure_1">
  <g id="patch_1">
   <path d="M 0 288 
L 432 288 
L 432 0 
L 0 0 
z
" style="fill:#ffffff;"/>
  </g>
  <g id="axes_1">
   <g id="patch_2">
    <path d="M 54 252 
L 165.6 252 
L 165.6 34.56 
L 54 34.56 
z
" style="fill:#ffffff;"/>
   </g>
   <g id="patch_3">
    <path clip-path="url(#p07d1a82186)" d="M 54 242.116364 
L 73.578947 242.116364 
L 73.578947 240.134682 
L 54 240.134682 
z
" style="fill:#1f77b4;"/>
   </g>
   <g id="patch_4">
    <path clip-path="url(#p07d1a82186)" d="M 54 239.639262 
L 76.37594 239.639262 
L 76.37594 237.65758 
L 54 237.65758 
z
" style="fill:#1f77b4;"/>
   </g>
   <g id="patch_5">
    <path clip-path="url(#p07d1a82186)" d="M 54 237.16216 
L 65.18797 237.16216 
L 65.18797 235.180478 
L 54 235.180478 
z
" style="fill:#1f77b4;"/>
   </g>
   <g id="patch_6">
    <path clip-path="url(#p07d1a82186)" d="M 54 234.685058 
L 70.781955 234.685058 
L 70.781955 232.703377 
L 54 232.703377 
z
" style="fill:#1f77b4;"/>
   </g>
   <g id="patch_7">
    <path clip-path="url(#p07d1a82186)" d="M 54 232.207956 
L 101.548872 232.207956 
L 101.548872 230.226275 
L 54 230.226275 
z
" style="fill:#1f77b4;"/>
   </g>
   <g id="patch_8">
    <path clip-path="url(#p07d1a82186)" d="M 54 229.730854 
L 73.578947 229.730854 
L 73.578947 227.749173 
L 54 227.749173 
z
" style="fill:#1f77b4;"/>
   </g>
   <g id="patch_9">
    <path clip-path="url(#p07d1a82186)" d="M 54 227.253753 
L 84.766917 227.253753 
L 84.766917 225.272071 
L 54 225.272071 
z
" style="fill:#1f77b4;"/>
   </g>
   <g id="patch_10">
    <path clip-path="url(#p07d1a82186)" d="M 54 224.776651 
L 90.360902 224.776651 
L 90.360902 222.794969 
L 54 222.794969 
z
" style="fill:#1f77b4;"/>
   </g>
   <g id="patch_11">
    <path clip-path="url(#p07d1a82186)" d="M 54 222.299549 
L 84.766917 222.299549 
L 84.766917 220.317867 
L 54 220.317867 
z
" style="fill:#1f77b4;"/>
   </g>
   <g id="patch_12">
    <path clip-path="url(#p07d1a82186)" d="M 54 219.822447 
L 93.157895 219.822447 
L 93.157895 217.840766 
L 54 217.840766 
z
" style="fill:#1f77b4;"/>
   </g>
   <g id="patch_13">
    <path clip-path="url(#p07d1a82186)" d="M 54 217.345345 
L 79.172932 217.345345 
L 79.172932 215.363664 
L 54 215.363664 
z
" style="fill:#1f77b4;"/>
   </g>
   <g id="patch_14">
    <path clip-path="url(#p07d1a82186)" d="M 54 214.868243 
L 79.172932 214.868243 
L 79.172932 212.886562 
L 54 212.886562 
z
" style="fill:#1f77b4;"/>
   </g>
   <g id="patch_15">
    <path clip-path="url(#p07d1a82186)" d="M 54 212.391141 
L 101.548872 212.391141 
L 101.548872 210.40946 
L 54 210.40946 
z
" style="fill:#1f77b4;"/>
   </g>
   <g id="patch_16">
    <path clip-path="url(#p07d1a82186)" d="M 54 209.91404 
L 87.56391 209.91404 
L 87.56391 207.932358 
L 54 207.932358 
z
" style="fill:#1f77b4;"/>
   </g>
   <g id="patch_17">
    <path clip-path="url(#p07d1a82186)" d="M 54 207.436938 
L 107.142857 207.436938 
L 107.142857 205.455256 
L 54 205.455256 
z
" style="fill:#1f77b4;"/>
   </g>
   <g id="patch_18">
    <path clip-path="url(#p07d1a82186)" d="M 54 204.959836 
L 79.172932 204.959836 
L 79.172932 202.978154 
L 54 202.978154 
z
" style="fill:#1f77b4;"/>
   </g>
   <g id="patch_19">
    <path clip-path="url(#p07d1a82186)" d="M 54 202.482734 
L 87.56391 202.482734 
L 87.56391 200.501053 
L 54 200.501053 
z
" style="fill:#1f77b4;"/>
   </g>
   <g id="patch_20">
    <path clip-path="url(#p07d1a82186)" d="M 54 200.005632 
L 98.75188 200.005632 
L 98.75188 198.023951 
L 54 198.023951 
z
" style="fill:#1f77b4;"/>
   </g>
   <g id="patch_21">
    <path clip-path="url(#p07d1a82186)" d="M 54 197.52853 
L 95.954887 197.52853 
L 95.954887 195.546849 
L 54 195.546849 
z
" style="fill:#1f77b4;"/>
   </g>
   <g id="patch_22">
    <path clip-path="url(#p07d1a82186)" d="M 54 195.051429 
L 95.954887 195.051429 
L 95.954887 193.069747 
L 54 193.069747 
z
" style="fill:#1f77b4;"/>
   </g>
   <g id="patch_23">
    <path clip-path="url(#p07d1a82186)" d="M 54 192.574327 
L 115.533835 192.574327 
L 115.533835 190.592645 
L 54 190.592645 
z
" style="fill:#1f77b4;"/>
   </g>
   <g id="patch_24">
    <path clip-path="url(#p07d1a82186)" d="M 54 190.097225 
L 132.315789 190.097225 
L 132.315789 188.115543 
L 54 188.115543 
z
" style="fill:#1f77b4;"/>
   </g>
   <g id="patch_25">
    <path clip-path="url(#p07d1a82186)" d="M 54 187.620123 
L 101.548872 187.620123 
L 101.548872 185.638442 
L 54 185.638442 
z
" style="fill:#1f77b4;"/>
   </g>
   <g id="patch_26">
    <path clip-path="url(#p07d1a82186)" d="M 54 185.143021 
L 101.548872 185.143021 
L 101.548872 183.16134 
L 54 183.16134 
z
" style="fill:#1f77b4;"/>
   </g>
   <g id="patch_27">
    <path clip-path="url(#p07d1a82186)" d="M 54 182.665919 
L 109.93985 182.665919 
L 109.93985 180.684238 
L 54 180.684238 
z
" style="fill:#1f77b4;"/>
   </g>
   <g id="patch_28">
    <path clip-path="url(#p07d1a82186)" d="M 54 180.188817 
L 121.12782 180.188817 
L 121.12782 178.207136 
L 54 178.207136 
z
" style="fill:#1f77b4;"/>
   </g>
   <g id="patch_29">
    <path clip-path="url(#p07d1a82186)" d="M 54 177.711716 
L 123.924812 177.711716 
L 123.924812 175.730034 
L 54 175.730034 
z
" style="fill:#1f77b4;"/>
   </g>
   <g id="patch_30">
    <path clip-path="url(#p07d1a82186)" d="M 54 175.234614 
L 112.736842 175.234614 
L 112.736842 173.252932 
L 54 173.252932 
z
" style="fill:#1f77b4;"/>
   </g>
   <g id="patch_31">
    <path clip-path="url(#p07d1a82186)" d="M 54 172.757512 
L 112.736842 172.757512 
L 112.736842 170.77583 
L 54 170.77583 
z
" style="fill:#1f77b4;"/>
   </g>
   <g id="patch_32">
    <path clip-path="url(#p07d1a82186)" d="M 54 170.28041 
L 112.736842 170.28041 
L 112.736842 168.298729 
L 54 168.298729 
z
" style="fill:#1f77b4;"/>
   </g>
   <g id="patch_33">
    <path clip-path="url(#p07d1a82186)" d="M 54 167.803308 
L 115.533835 167.803308 
L 115.533835 165.821627 
L 54 165.821627 
z
" style="fill:#1f77b4;"/>
   </g>
   <g id="patch_34">
    <path clip-path="url(#p07d1a82186)" d="M 54 165.326206 
L 101.548872 165.326206 
L 101.548872 163.344525 
L 54 163.344525 
z
" style="fill:#1f77b4;"/>
   </g>
   <g id="patch_35">
    <path clip-path="url(#p07d1a82186)" d="M 54 162.849105 
L 129.518797 162.849105 
L 129.518797 160.867423 
L 54 160.867423 
z
" style="fill:#1f77b4;"/>
   </g>
   <g id="patch_36">
    <path clip-path="url(#p07d1a82186)" d="M 54 160.372003 
L 132.315789 160.372003 
L 132.315789 158.390321 
L 54 158.390321 
z
" style="fill:#1f77b4;"/>
   </g>
   <g id="patch_37">
    <path clip-path="url(#p07d1a82186)" d="M 54 157.894901 
L 154.691729 157.894901 
L 154.691729 155.913219 
L 54 155.913219 
z
" style="fill:#1f77b4;"/>
   </g>
   <g id="patch_38">
    <path clip-path="url(#p07d1a82186)" d="M 54 155.417799 
L 143.503759 155.417799 
L 143.503759 153.436118 
L 54 153.436118 
z
" style="fill:#1f77b4;"/>
   </g>
   <g id="patch_39">
    <path clip-path="url(#p07d1a82186)" d="M 54 152.940697 
L 129.518797 152.940697 
L 129.518797 150.959016 
L 54 150.959016 
z
" style="fill:#1f77b4;"/>
   </g>
   <g id="patch_40">
    <path clip-path="url(#p07d1a82186)" d="M 54 150.463595 
L 140.706767 150.463595 
L 140.706767 148.481914 
L 54 148.481914 
z
" style="fill:#1f77b4;"/>
   </g>
   <g id="patch_41">
    <path clip-path="url(#p07d1a82186)" d="M 54 147.986494 
L 140.706767 147.986494 
L 140.706767 146.004812 
L 54 146.004812 
z
" style="fill:#1f77b4;"/>
   </g>
   <g id="patch_42">
    <path clip-path="url(#p07d1a82186)" d="M 54 145.509392 
L 137.909774 145.509392 
L 137.909774 143.52771 
L 54 143.52771 
z
" style="fill:#1f77b4;"/>
   </g>
   <g id="patch_43">
    <path clip-path="url(#p07d1a82186)" d="M 54 143.03229 
L 157.488722 143.03229 
L 157.488722 141.050608 
L 54 141.050608 
z
" style="fill:#1f77b4;"/>
   </g>
   <g id="patch_44">
    <path clip-path="url(#p07d1a82186)" d="M 54 140.555188 
L 137.909774 140.555188 
L 137.909774 138.573506 
L 54 138.573506 
z
" style="fill:#1f77b4;"/>
   </g>
   <g id="patch_45">
    <path clip-path="url(#p07d1a82186)" d="M 54 138.078086 
L 143.503759 138.078086 
L 143.503759 136.096405 
L 54 136.096405 
z
" style="fill:#1f77b4;"/>
   </g>
   <g id="patch_46">
    <path clip-path="url(#p07d1a82186)" d="M 54 135.600984 
L 126.721805 135.600984 
L 126.721805 133.619303 
L 54 133.619303 
z
" style="fill:#1f77b4;"/>
   </g>
   <g id="patch_47">
    <path clip-path="url(#p07d1a82186)" d="M 54 133.123882 
L 132.315789 133.123882 
L 132.315789 131.142201 
L 54 131.142201 
z
" style="fill:#1f77b4;"/>
   </g>
   <g id="patch_48">
    <path clip-path="url(#p07d1a82186)" d="M 54 130.646781 
L 160.285714 130.646781 
L 160.285714 128.665099 
L 54 128.665099 
z
" style="fill:#1f77b4;"/>
   </g>
   <g id="patch_49">
    <path clip-path="url(#p07d1a82186)" d="M 54 128.169679 
L 140.706767 128.169679 
L 140.706767 126.187997 
L 54 126.187997 
z
" style="fill:#1f77b4;"/>
   </g>
   <g id="patch_50">
    <path clip-path="url(#p07d1a82186)" d="M 54 125.692577 
L 140.706767 125.692577 
L 140.706767 123.710895 
L 54 123.710895 
z
" style="fill:#1f77b4;"/>
   </g>
   <g id="patch_51">
    <path clip-path="url(#p07d1a82186)" d="M 54 123.215475 
L 140.706767 123.215475 
L 140.706767 121.233794 
L 54 121.233794 
z
" style="fill:#1f77b4;"/>
   </g>
   <g id="patch_52">
    <path clip-path="url(#p07d1a82186)" d="M 54 120.738373 
L 132.315789 120.738373 
L 132.315789 118.756692 
L 54 118.756692 
z
" style="fill:#1f77b4;"/>
   </g>
   <g id="patch_53">
    <path clip-path="url(#p07d1a82186)" d="M 54 118.261271 
L 132.315789 118.261271 
L 132.315789 116.27959 
L 54 116.27959 
z
" style="fill:#1f77b4;"/>
   </g>
   <g id="patch_54">
    <path clip-path="url(#p07d1a82186)" d="M 54 115.78417 
L 143.503759 115.78417 
L 143.503759 113.802488 
L 54 113.802488 
z
" style="fill:#1f77b4;"/>
   </g>
   <g id="patch_55">
    <path clip-path="url(#p07d1a82186)" d="M 54 113.307068 
L 135.112782 113.307068 
L 135.112782 111.325386 
L 54 111.325386 
z
" style="fill:#1f77b4;"/>
   </g>
   <g id="patch_56">
    <path clip-path="url(#p07d1a82186)" d="M 54 110.829966 
L 129.518797 110.829966 
L 129.518797 108.848284 
L 54 108.848284 
z
" style="fill:#1f77b4;"/>
   </g>
   <g id="patch_57">
    <path clip-path="url(#p07d1a82186)" d="M 54 108.352864 
L 151.894737 108.352864 
L 151.894737 106.371183 
L 54 106.371183 
z
" style="fill:#1f77b4;"/>
   </g>
   <g id="patch_58">
    <path clip-path="url(#p07d1a82186)" d="M 54 105.875762 
L 132.315789 105.875762 
L 132.315789 103.894081 
L 54 103.894081 
z
" style="fill:#1f77b4;"/>
   </g>
   <g id="patch_59">
    <path clip-path="url(#p07d1a82186)" d="M 54 103.39866 
L 129.518797 103.39866 
L 129.518797 101.416979 
L 54 101.416979 
z
" style="fill:#1f77b4;"/>
   </g>
   <g id="patch_60">
    <path clip-path="url(#p07d1a82186)" d="M 54 100.921558 
L 140.706767 100.921558 
L 140.706767 98.939877 
L 54 98.939877 
z
" style="fill:#1f77b4;"/>
   </g>
   <g id="patch_61">
    <path clip-path="url(#p07d1a82186)" d="M 54 98.444457 
L 132.315789 98.444457 
L 132.315789 96.462775 
L 54 96.462775 
z
" style="fill:#1f77b4;"/>
   </g>
   <g id="patch_62">
    <path clip-path="url(#p07d1a82186)" d="M 54 95.967355 
L 109.93985 95.967355 
L 109.93985 93.985673 
L 54 93.985673 
z
" style="fill:#1f77b4;"/>
   </g>
   <g id="patch_63">
    <path clip-path="url(#p07d1a82186)" d="M 54 93.490253 
L 137.909774 93.490253 
L 137.909774 91.508571 
L 54 91.508571 
z
" style="fill:#1f77b4;"/>
   </g>
   <g id="patch_64">
    <path clip-path="url(#p07d1a82186)" d="M 54 91.013151 
L 123.924812 91.013151 
L 123.924812 89.03147 
L 54 89.03147 
z
" style="fill:#1f77b4;"/>
   </g>
   <g id="patch_65">
    <path clip-path="url(#p07d1a82186)" d="M 54 88.536049 
L 126.721805 88.536049 
L 126.721805 86.554368 
L 54 86.554368 
z
" style="fill:#1f77b4;"/>
   </g>
   <g id="patch_66">
    <path clip-path="url(#p07d1a82186)" d="M 54 86.058947 
L 107.142857 86.058947 
L 107.142857 84.077266 
L 54 84.077266 
z
" style="fill:#1f77b4;"/>
   </g>
   <g id="patch_67">
    <path clip-path="url(#p07d1a82186)" d="M 54 83.581846 
L 129.518797 83.581846 
L 129.518797 81.600164 
L 54 81.600164 
z
" style="fill:#1f77b4;"/>
   </g>
   <g id="patch_68">
    <path clip-path="url(#p07d1a82186)" d="M 54 81.104744 
L 132.315789 81.104744 
L 132.315789 79.123062 
L 54 79.123062 
z
" style="fill:#1f77b4;"/>
   </g>
   <g id="patch_69">
    <path clip-path="url(#p07d1a82186)" d="M 54 78.627642 
L 121.12782 78.627642 
L 121.12782 76.64596 
L 54 76.64596 
z
" style="fill:#1f77b4;"/>
   </g>
   <g id="patch_70">
    <path clip-path="url(#p07d1a82186)" d="M 54 76.15054 
L 137.909774 76.15054 
L 137.909774 74.168859 
L 54 74.168859 
z
" style="fill:#1f77b4;"/>
   </g>
   <g id="patch_71">
    <path clip-path="url(#p07d1a82186)" d="M 54 73.673438 
L 132.315789 73.673438 
L 132.315789 71.691757 
L 54 71.691757 
z
" style="fill:#1f77b4;"/>
   </g>
   <g id="patch_72">
    <path clip-path="url(#p07d1a82186)" d="M 54 71.196336 
L 98.75188 71.196336 
L 98.75188 69.214655 
L 54 69.214655 
z
" style="fill:#1f77b4;"/>
   </g>
   <g id="patch_73">
    <path clip-path="url(#p07d1a82186)" d="M 54 68.719234 
L 107.142857 68.719234 
L 107.142857 66.737553 
L 54 66.737553 
z
" style="fill:#1f77b4;"/>
   </g>
   <g id="patch_74">
    <path clip-path="url(#p07d1a82186)" d="M 54 66.242133 
L 129.518797 66.242133 
L 129.518797 64.260451 
L 54 64.260451 
z
" style="fill:#1f77b4;"/>
   </g>
   <g id="patch_75">
    <path clip-path="url(#p07d1a82186)" d="M 54 63.765031 
L 121.12782 63.765031 
L 121.12782 61.783349 
L 54 61.783349 
z
" style="fill:#1f77b4;"/>
   </g>
   <g id="patch_76">
    <path clip-path="url(#p07d1a82186)" d="M 54 61.287929 
L 121.12782 61.287929 
L 121.12782 59.306247 
L 54 59.306247 
z
" style="fill:#1f77b4;"/>
   </g>
   <g id="patch_77">
    <path clip-path="url(#p07d1a82186)" d="M 54 58.810827 
L 132.315789 58.810827 
L 132.315789 56.829146 
L 54 56.829146 
z
" style="fill:#1f77b4;"/>
   </g>
   <g id="patch_78">
    <path clip-path="url(#p07d1a82186)" d="M 54 56.333725 
L 135.112782 56.333725 
L 135.112782 54.352044 
L 54 54.352044 
z
" style="fill:#1f77b4;"/>
   </g>
   <g id="patch_79">
    <path clip-path="url(#p07d1a82186)" d="M 54 53.856623 
L 143.503759 53.856623 
L 143.503759 51.874942 
L 54 51.874942 
z
" style="fill:#1f77b4;"/>
   </g>
   <g id="patch_80">
    <path clip-path="url(#p07d1a82186)" d="M 54 51.379522 
L 123.924812 51.379522 
L 123.924812 49.39784 
L 54 49.39784 
z
" style="fill:#1f77b4;"/>
   </g>
   <g id="patch_81">
    <path clip-path="url(#p07d1a82186)" d="M 54 48.90242 
L 95.954887 48.90242 
L 95.954887 46.920738 
L 54 46.920738 
z
" style="fill:#1f77b4;"/>
   </g>
   <g id="patch_82">
    <path clip-path="url(#p07d1a82186)" d="M 54 46.425318 
L 87.56391 46.425318 
L 87.56391 44.443636 
L 54 44.443636 
z
" style="fill:#1f77b4;"/>
   </g>
   <g id="matplotlib.axis_1"/>
   <g id="matplotlib.axis_2">
    <g id="ytick_1">
     <g id="line2d_1">
      <defs>
       <path d="M 0 0 
L -3.5 0 
" id="m8225475973" style="stroke:#000000;stroke-width:0.8;"/>
      </defs>
      <g>
       <use style="stroke:#000000;stroke-width:0.8;" x="54" xlink:href="#m8225475973" y="42.957375"/>
      </g>
     </g>
     <g id="text_1">
      <!-- 80 -->
      <defs>
       <path d="M 31.78125 34.625 
Q 24.75 34.625 20.71875 30.859375 
Q 16.703125 27.09375 16.703125 20.515625 
Q 16.703125 13.921875 20.71875 10.15625 
Q 24.75 6.390625 31.78125 6.390625 
Q 38.8125 6.390625 42.859375 10.171875 
Q 46.921875 13.96875 46.921875 20.515625 
Q 46.921875 27.09375 42.890625 30.859375 
Q 38.875 34.625 31.78125 34.625 
z
M 21.921875 38.8125 
Q 15.578125 40.375 12.03125 44.71875 
Q 8.5 49.078125 8.5 55.328125 
Q 8.5 64.0625 14.71875 69.140625 
Q 20.953125 74.21875 31.78125 74.21875 
Q 42.671875 74.21875 48.875 69.140625 
Q 55.078125 64.0625 55.078125 55.328125 
Q 55.078125 49.078125 51.53125 44.71875 
Q 48 40.375 41.703125 38.8125 
Q 48.828125 37.15625 52.796875 32.3125 
Q 56.78125 27.484375 56.78125 20.515625 
Q 56.78125 9.90625 50.3125 4.234375 
Q 43.84375 -1.421875 31.78125 -1.421875 
Q 19.734375 -1.421875 13.25 4.234375 
Q 6.78125 9.90625 6.78125 20.515625 
Q 6.78125 27.484375 10.78125 32.3125 
Q 14.796875 37.15625 21.921875 38.8125 
z
M 18.3125 54.390625 
Q 18.3125 48.734375 21.84375 45.5625 
Q 25.390625 42.390625 31.78125 42.390625 
Q 38.140625 42.390625 41.71875 45.5625 
Q 45.3125 48.734375 45.3125 54.390625 
Q 45.3125 60.0625 41.71875 63.234375 
Q 38.140625 66.40625 31.78125 66.40625 
Q 25.390625 66.40625 21.84375 63.234375 
Q 18.3125 60.0625 18.3125 54.390625 
z
" id="DejaVuSans-56"/>
       <path d="M 31.78125 66.40625 
Q 24.171875 66.40625 20.328125 58.90625 
Q 16.5 51.421875 16.5 36.375 
Q 16.5 21.390625 20.328125 13.890625 
Q 24.171875 6.390625 31.78125 6.390625 
Q 39.453125 6.390625 43.28125 13.890625 
Q 47.125 21.390625 47.125 36.375 
Q 47.125 51.421875 43.28125 58.90625 
Q 39.453125 66.40625 31.78125 66.40625 
z
M 31.78125 74.21875 
Q 44.046875 74.21875 50.515625 64.515625 
Q 56.984375 54.828125 56.984375 36.375 
Q 56.984375 17.96875 50.515625 8.265625 
Q 44.046875 -1.421875 31.78125 -1.421875 
Q 19.53125 -1.421875 13.0625 8.265625 
Q 6.59375 17.96875 6.59375 36.375 
Q 6.59375 54.828125 13.0625 64.515625 
Q 19.53125 74.21875 31.78125 74.21875 
z
" id="DejaVuSans-48"/>
      </defs>
      <g transform="translate(34.275 46.756594)scale(0.1 -0.1)">
       <use xlink:href="#DejaVuSans-56"/>
       <use x="63.623047" xlink:href="#DejaVuSans-48"/>
      </g>
     </g>
    </g>
    <g id="ytick_2">
     <g id="line2d_2">
      <g>
       <use style="stroke:#000000;stroke-width:0.8;" x="54" xlink:href="#m8225475973" y="92.499412"/>
      </g>
     </g>
     <g id="text_2">
      <!-- 60 -->
      <defs>
       <path d="M 33.015625 40.375 
Q 26.375 40.375 22.484375 35.828125 
Q 18.609375 31.296875 18.609375 23.390625 
Q 18.609375 15.53125 22.484375 10.953125 
Q 26.375 6.390625 33.015625 6.390625 
Q 39.65625 6.390625 43.53125 10.953125 
Q 47.40625 15.53125 47.40625 23.390625 
Q 47.40625 31.296875 43.53125 35.828125 
Q 39.65625 40.375 33.015625 40.375 
z
M 52.59375 71.296875 
L 52.59375 62.3125 
Q 48.875 64.0625 45.09375 64.984375 
Q 41.3125 65.921875 37.59375 65.921875 
Q 27.828125 65.921875 22.671875 59.328125 
Q 17.53125 52.734375 16.796875 39.40625 
Q 19.671875 43.65625 24.015625 45.921875 
Q 28.375 48.1875 33.59375 48.1875 
Q 44.578125 48.1875 50.953125 41.515625 
Q 57.328125 34.859375 57.328125 23.390625 
Q 57.328125 12.15625 50.6875 5.359375 
Q 44.046875 -1.421875 33.015625 -1.421875 
Q 20.359375 -1.421875 13.671875 8.265625 
Q 6.984375 17.96875 6.984375 36.375 
Q 6.984375 53.65625 15.1875 63.9375 
Q 23.390625 74.21875 37.203125 74.21875 
Q 40.921875 74.21875 44.703125 73.484375 
Q 48.484375 72.75 52.59375 71.296875 
z
" id="DejaVuSans-54"/>
      </defs>
      <g transform="translate(34.275 96.298631)scale(0.1 -0.1)">
       <use xlink:href="#DejaVuSans-54"/>
       <use x="63.623047" xlink:href="#DejaVuSans-48"/>
      </g>
     </g>
    </g>
    <g id="ytick_3">
     <g id="line2d_3">
      <g>
       <use style="stroke:#000000;stroke-width:0.8;" x="54" xlink:href="#m8225475973" y="142.041449"/>
      </g>
     </g>
     <g id="text_3">
      <!-- 40 -->
      <defs>
       <path d="M 37.796875 64.3125 
L 12.890625 25.390625 
L 37.796875 25.390625 
z
M 35.203125 72.90625 
L 47.609375 72.90625 
L 47.609375 25.390625 
L 58.015625 25.390625 
L 58.015625 17.1875 
L 47.609375 17.1875 
L 47.609375 0 
L 37.796875 0 
L 37.796875 17.1875 
L 4.890625 17.1875 
L 4.890625 26.703125 
z
" id="DejaVuSans-52"/>
      </defs>
      <g transform="translate(34.275 145.840668)scale(0.1 -0.1)">
       <use xlink:href="#DejaVuSans-52"/>
       <use x="63.623047" xlink:href="#DejaVuSans-48"/>
      </g>
     </g>
    </g>
    <g id="ytick_4">
     <g id="line2d_4">
      <g>
       <use style="stroke:#000000;stroke-width:0.8;" x="54" xlink:href="#m8225475973" y="191.583486"/>
      </g>
     </g>
     <g id="text_4">
      <!-- 20 -->
      <defs>
       <path d="M 19.1875 8.296875 
L 53.609375 8.296875 
L 53.609375 0 
L 7.328125 0 
L 7.328125 8.296875 
Q 12.9375 14.109375 22.625 23.890625 
Q 32.328125 33.6875 34.8125 36.53125 
Q 39.546875 41.84375 41.421875 45.53125 
Q 43.3125 49.21875 43.3125 52.78125 
Q 43.3125 58.59375 39.234375 62.25 
Q 35.15625 65.921875 28.609375 65.921875 
Q 23.96875 65.921875 18.8125 64.3125 
Q 13.671875 62.703125 7.8125 59.421875 
L 7.8125 69.390625 
Q 13.765625 71.78125 18.9375 73 
Q 24.125 74.21875 28.421875 74.21875 
Q 39.75 74.21875 46.484375 68.546875 
Q 53.21875 62.890625 53.21875 53.421875 
Q 53.21875 48.921875 51.53125 44.890625 
Q 49.859375 40.875 45.40625 35.40625 
Q 44.1875 33.984375 37.640625 27.21875 
Q 31.109375 20.453125 19.1875 8.296875 
z
" id="DejaVuSans-50"/>
      </defs>
      <g transform="translate(34.275 195.382705)scale(0.1 -0.1)">
       <use xlink:href="#DejaVuSans-50"/>
       <use x="63.623047" xlink:href="#DejaVuSans-48"/>
      </g>
     </g>
    </g>
    <g id="ytick_5">
     <g id="line2d_5">
      <g>
       <use style="stroke:#000000;stroke-width:0.8;" x="54" xlink:href="#m8225475973" y="241.125523"/>
      </g>
     </g>
     <g id="text_5">
      <!-- 0 -->
      <g transform="translate(40.6375 244.924742)scale(0.1 -0.1)">
       <use xlink:href="#DejaVuSans-48"/>
      </g>
     </g>
    </g>
   </g>
   <g id="patch_83">
    <path d="M 54 252 
L 54 34.56 
" style="fill:none;stroke:#000000;stroke-linecap:square;stroke-linejoin:miter;stroke-width:0.8;"/>
   </g>
   <g id="patch_84">
    <path d="M 165.6 252 
L 165.6 34.56 
" style="fill:none;stroke:#000000;stroke-linecap:square;stroke-linejoin:miter;stroke-width:0.8;"/>
   </g>
   <g id="patch_85">
    <path d="M 54 252 
L 165.6 252 
" style="fill:none;stroke:#000000;stroke-linecap:square;stroke-linejoin:miter;stroke-width:0.8;"/>
   </g>
   <g id="patch_86">
    <path d="M 54 34.56 
L 165.6 34.56 
" style="fill:none;stroke:#000000;stroke-linecap:square;stroke-linejoin:miter;stroke-width:0.8;"/>
   </g>
  </g>
  <g id="axes_2">
   <g id="patch_87">
    <path d="M 165.6 252 
L 277.2 252 
L 277.2 34.56 
L 165.6 34.56 
z
" style="fill:#ffffff;"/>
   </g>
   <g id="patch_88">
    <path clip-path="url(#p98fdef9094)" d="M 199.69575 242.116364 
L 170.672727 242.116364 
L 170.672727 240.134682 
L 199.69575 240.134682 
z
" style="fill:#1f77b4;"/>
   </g>
   <g id="patch_89">
    <path clip-path="url(#p98fdef9094)" d="M 199.69575 239.639262 
L 172.786364 239.639262 
L 172.786364 237.65758 
L 199.69575 237.65758 
z
" style="fill:#1f77b4;"/>
   </g>
   <g id="patch_90">
    <path clip-path="url(#p98fdef9094)" d="M 199.69575 237.16216 
L 185.468182 237.16216 
L 185.468182 235.180478 
L 199.69575 235.180478 
z
" style="fill:#1f77b4;"/>
   </g>
   <g id="patch_91">
    <path clip-path="url(#p98fdef9094)" d="M 199.69575 234.685058 
L 181.240909 234.685058 
L 181.240909 232.703377 
L 199.69575 232.703377 
z
" style="fill:#1f77b4;"/>
   </g>
   <g id="patch_92">
    <path clip-path="url(#p98fdef9094)" d="M 199.69575 232.207956 
L 183.354545 232.207956 
L 183.354545 230.226275 
L 199.69575 230.226275 
z
" style="fill:#1f77b4;"/>
   </g>
   <g id="patch_93">
    <path clip-path="url(#p98fdef9094)" d="M 199.69575 229.730854 
L 181.240909 229.730854 
L 181.240909 227.749173 
L 199.69575 227.749173 
z
" style="fill:#1f77b4;"/>
   </g>
   <g id="patch_94">
    <path clip-path="url(#p98fdef9094)" d="M 199.69575 227.253753 
L 187.581818 227.253753 
L 187.581818 225.272071 
L 199.69575 225.272071 
z
" style="fill:#1f77b4;"/>
   </g>
   <g id="patch_95">
    <path clip-path="url(#p98fdef9094)" d="M 199.69575 224.776651 
L 172.786364 224.776651 
L 172.786364 222.794969 
L 199.69575 222.794969 
z
" style="fill:#1f77b4;"/>
   </g>
   <g id="patch_96">
    <path clip-path="url(#p98fdef9094)" d="M 199.69575 222.299549 
L 189.695455 222.299549 
L 189.695455 220.317867 
L 199.69575 220.317867 
z
" style="fill:#1f77b4;"/>
   </g>
   <g id="patch_97">
    <path clip-path="url(#p98fdef9094)" d="M 199.69575 219.822447 
L 193.922727 219.822447 
L 193.922727 217.840766 
L 199.69575 217.840766 
z
" style="fill:#1f77b4;"/>
   </g>
   <g id="patch_98">
    <path clip-path="url(#p98fdef9094)" d="M 199.69575 217.345345 
L 187.581818 217.345345 
L 187.581818 215.363664 
L 199.69575 215.363664 
z
" style="fill:#1f77b4;"/>
   </g>
   <g id="patch_99">
    <path clip-path="url(#p98fdef9094)" d="M 199.69575 214.868243 
L 191.809091 214.868243 
L 191.809091 212.886562 
L 199.69575 212.886562 
z
" style="fill:#1f77b4;"/>
   </g>
   <g id="patch_100">
    <path clip-path="url(#p98fdef9094)" d="M 199.69575 212.391141 
L 189.695455 212.391141 
L 189.695455 210.40946 
L 199.69575 210.40946 
z
" style="fill:#1f77b4;"/>
   </g>
   <g id="patch_101">
    <path clip-path="url(#p98fdef9094)" d="M 199.69575 209.91404 
L 196.036364 209.91404 
L 196.036364 207.932358 
L 199.69575 207.932358 
z
" style="fill:#1f77b4;"/>
   </g>
   <g id="patch_102">
    <path clip-path="url(#p98fdef9094)" d="M 199.69575 207.436938 
L 191.809091 207.436938 
L 191.809091 205.455256 
L 199.69575 205.455256 
z
" style="fill:#1f77b4;"/>
   </g>
   <g id="patch_103">
    <path clip-path="url(#p98fdef9094)" d="M 199.69575 204.959836 
L 187.581818 204.959836 
L 187.581818 202.978154 
L 199.69575 202.978154 
z
" style="fill:#1f77b4;"/>
   </g>
   <g id="patch_104">
    <path clip-path="url(#p98fdef9094)" d="M 199.69575 202.482734 
L 196.036364 202.482734 
L 196.036364 200.501053 
L 199.69575 200.501053 
z
" style="fill:#1f77b4;"/>
   </g>
   <g id="patch_105">
    <path clip-path="url(#p98fdef9094)" d="M 199.69575 200.005632 
L 198.15 200.005632 
L 198.15 198.023951 
L 199.69575 198.023951 
z
" style="fill:#1f77b4;"/>
   </g>
   <g id="patch_106">
    <path clip-path="url(#p98fdef9094)" d="M 199.69575 197.52853 
L 200.263636 197.52853 
L 200.263636 195.546849 
L 199.69575 195.546849 
z
" style="fill:#1f77b4;"/>
   </g>
   <g id="patch_107">
    <path clip-path="url(#p98fdef9094)" d="M 199.69575 195.051429 
L 204.490909 195.051429 
L 204.490909 193.069747 
L 199.69575 193.069747 
z
" style="fill:#1f77b4;"/>
   </g>
   <g id="patch_108">
    <path clip-path="url(#p98fdef9094)" d="M 199.69575 192.574327 
L 202.377273 192.574327 
L 202.377273 190.592645 
L 199.69575 190.592645 
z
" style="fill:#1f77b4;"/>
   </g>
   <g id="patch_109">
    <path clip-path="url(#p98fdef9094)" d="M 199.69575 190.097225 
L 206.604546 190.097225 
L 206.604546 188.115543 
L 199.69575 188.115543 
z
" style="fill:#1f77b4;"/>
   </g>
   <g id="patch_110">
    <path clip-path="url(#p98fdef9094)" d="M 199.69575 187.620123 
L 212.945455 187.620123 
L 212.945455 185.638442 
L 199.69575 185.638442 
z
" style="fill:#1f77b4;"/>
   </g>
   <g id="patch_111">
    <path clip-path="url(#p98fdef9094)" d="M 199.69575 185.143021 
L 219.286363 185.143021 
L 219.286363 183.16134 
L 199.69575 183.16134 
z
" style="fill:#1f77b4;"/>
   </g>
   <g id="patch_112">
    <path clip-path="url(#p98fdef9094)" d="M 199.69575 182.665919 
L 215.059091 182.665919 
L 215.059091 180.684238 
L 199.69575 180.684238 
z
" style="fill:#1f77b4;"/>
   </g>
   <g id="patch_113">
    <path clip-path="url(#p98fdef9094)" d="M 199.69575 180.188817 
L 215.059091 180.188817 
L 215.059091 178.207136 
L 199.69575 178.207136 
z
" style="fill:#1f77b4;"/>
   </g>
   <g id="patch_114">
    <path clip-path="url(#p98fdef9094)" d="M 199.69575 177.711716 
L 231.968182 177.711716 
L 231.968182 175.730034 
L 199.69575 175.730034 
z
" style="fill:#1f77b4;"/>
   </g>
   <g id="patch_115">
    <path clip-path="url(#p98fdef9094)" d="M 199.69575 175.234614 
L 208.718182 175.234614 
L 208.718182 173.252932 
L 199.69575 173.252932 
z
" style="fill:#1f77b4;"/>
   </g>
   <g id="patch_116">
    <path clip-path="url(#p98fdef9094)" d="M 199.69575 172.757512 
L 200.263636 172.757512 
L 200.263636 170.77583 
L 199.69575 170.77583 
z
" style="fill:#1f77b4;"/>
   </g>
   <g id="patch_117">
    <path clip-path="url(#p98fdef9094)" d="M 199.69575 170.28041 
L 223.513636 170.28041 
L 223.513636 168.298729 
L 199.69575 168.298729 
z
" style="fill:#1f77b4;"/>
   </g>
   <g id="patch_118">
    <path clip-path="url(#p98fdef9094)" d="M 199.69575 167.803308 
L 210.831818 167.803308 
L 210.831818 165.821627 
L 199.69575 165.821627 
z
" style="fill:#1f77b4;"/>
   </g>
   <g id="patch_119">
    <path clip-path="url(#p98fdef9094)" d="M 199.69575 165.326206 
L 219.286364 165.326206 
L 219.286364 163.344525 
L 199.69575 163.344525 
z
" style="fill:#1f77b4;"/>
   </g>
   <g id="patch_120">
    <path clip-path="url(#p98fdef9094)" d="M 199.69575 162.849105 
L 223.513636 162.849105 
L 223.513636 160.867423 
L 199.69575 160.867423 
z
" style="fill:#1f77b4;"/>
   </g>
   <g id="patch_121">
    <path clip-path="url(#p98fdef9094)" d="M 199.69575 160.372003 
L 208.718182 160.372003 
L 208.718182 158.390321 
L 199.69575 158.390321 
z
" style="fill:#1f77b4;"/>
   </g>
   <g id="patch_122">
    <path clip-path="url(#p98fdef9094)" d="M 199.69575 157.894901 
L 204.490909 157.894901 
L 204.490909 155.913219 
L 199.69575 155.913219 
z
" style="fill:#1f77b4;"/>
   </g>
   <g id="patch_123">
    <path clip-path="url(#p98fdef9094)" d="M 199.69575 155.417799 
L 227.740909 155.417799 
L 227.740909 153.436118 
L 199.69575 153.436118 
z
" style="fill:#1f77b4;"/>
   </g>
   <g id="patch_124">
    <path clip-path="url(#p98fdef9094)" d="M 199.69575 152.940697 
L 255.218182 152.940697 
L 255.218182 150.959016 
L 199.69575 150.959016 
z
" style="fill:#1f77b4;"/>
   </g>
   <g id="patch_125">
    <path clip-path="url(#p98fdef9094)" d="M 199.69575 150.463595 
L 234.081818 150.463595 
L 234.081818 148.481914 
L 199.69575 148.481914 
z
" style="fill:#1f77b4;"/>
   </g>
   <g id="patch_126">
    <path clip-path="url(#p98fdef9094)" d="M 199.69575 147.986494 
L 238.309091 147.986494 
L 238.309091 146.004812 
L 199.69575 146.004812 
z
" style="fill:#1f77b4;"/>
   </g>
   <g id="patch_127">
    <path clip-path="url(#p98fdef9094)" d="M 199.69575 145.509392 
L 225.627273 145.509392 
L 225.627273 143.52771 
L 199.69575 143.52771 
z
" style="fill:#1f77b4;"/>
   </g>
   <g id="patch_128">
    <path clip-path="url(#p98fdef9094)" d="M 199.69575 143.03229 
L 219.286364 143.03229 
L 219.286364 141.050608 
L 199.69575 141.050608 
z
" style="fill:#1f77b4;"/>
   </g>
   <g id="patch_129">
    <path clip-path="url(#p98fdef9094)" d="M 199.69575 140.555188 
L 244.65 140.555188 
L 244.65 138.573506 
L 199.69575 138.573506 
z
" style="fill:#1f77b4;"/>
   </g>
   <g id="patch_130">
    <path clip-path="url(#p98fdef9094)" d="M 199.69575 138.078086 
L 261.559091 138.078086 
L 261.559091 136.096405 
L 199.69575 136.096405 
z
" style="fill:#1f77b4;"/>
   </g>
   <g id="patch_131">
    <path clip-path="url(#p98fdef9094)" d="M 199.69575 135.600984 
L 225.627273 135.600984 
L 225.627273 133.619303 
L 199.69575 133.619303 
z
" style="fill:#1f77b4;"/>
   </g>
   <g id="patch_132">
    <path clip-path="url(#p98fdef9094)" d="M 199.69575 133.123882 
L 263.672727 133.123882 
L 263.672727 131.142201 
L 199.69575 131.142201 
z
" style="fill:#1f77b4;"/>
   </g>
   <g id="patch_133">
    <path clip-path="url(#p98fdef9094)" d="M 199.69575 130.646781 
L 236.195454 130.646781 
L 236.195454 128.665099 
L 199.69575 128.665099 
z
" style="fill:#1f77b4;"/>
   </g>
   <g id="patch_134">
    <path clip-path="url(#p98fdef9094)" d="M 199.69575 128.169679 
L 267.899999 128.169679 
L 267.899999 126.187997 
L 199.69575 126.187997 
z
" style="fill:#1f77b4;"/>
   </g>
   <g id="patch_135">
    <path clip-path="url(#p98fdef9094)" d="M 199.69575 125.692577 
L 267.9 125.692577 
L 267.9 123.710895 
L 199.69575 123.710895 
z
" style="fill:#1f77b4;"/>
   </g>
   <g id="patch_136">
    <path clip-path="url(#p98fdef9094)" d="M 199.69575 123.215475 
L 234.081818 123.215475 
L 234.081818 121.233794 
L 199.69575 121.233794 
z
" style="fill:#1f77b4;"/>
   </g>
   <g id="patch_137">
    <path clip-path="url(#p98fdef9094)" d="M 199.69575 120.738373 
L 267.9 120.738373 
L 267.9 118.756692 
L 199.69575 118.756692 
z
" style="fill:#1f77b4;"/>
   </g>
   <g id="patch_138">
    <path clip-path="url(#p98fdef9094)" d="M 199.69575 118.261271 
L 272.127273 118.261271 
L 272.127273 116.27959 
L 199.69575 116.27959 
z
" style="fill:#1f77b4;"/>
   </g>
   <g id="patch_139">
    <path clip-path="url(#p98fdef9094)" d="M 199.69575 115.78417 
L 250.990909 115.78417 
L 250.990909 113.802488 
L 199.69575 113.802488 
z
" style="fill:#1f77b4;"/>
   </g>
   <g id="patch_140">
    <path clip-path="url(#p98fdef9094)" d="M 199.69575 113.307068 
L 219.286364 113.307068 
L 219.286364 111.325386 
L 199.69575 111.325386 
z
" style="fill:#1f77b4;"/>
   </g>
   <g id="patch_141">
    <path clip-path="url(#p98fdef9094)" d="M 199.69575 110.829966 
L 250.990909 110.829966 
L 250.990909 108.848284 
L 199.69575 108.848284 
z
" style="fill:#1f77b4;"/>
   </g>
   <g id="patch_142">
    <path clip-path="url(#p98fdef9094)" d="M 199.69575 108.352864 
L 234.081818 108.352864 
L 234.081818 106.371183 
L 199.69575 106.371183 
z
" style="fill:#1f77b4;"/>
   </g>
   <g id="patch_143">
    <path clip-path="url(#p98fdef9094)" d="M 199.69575 105.875762 
L 250.990909 105.875762 
L 250.990909 103.894081 
L 199.69575 103.894081 
z
" style="fill:#1f77b4;"/>
   </g>
   <g id="patch_144">
    <path clip-path="url(#p98fdef9094)" d="M 199.69575 103.39866 
L 261.55909 103.39866 
L 261.55909 101.416979 
L 199.69575 101.416979 
z
" style="fill:#1f77b4;"/>
   </g>
   <g id="patch_145">
    <path clip-path="url(#p98fdef9094)" d="M 199.69575 100.921558 
L 231.968182 100.921558 
L 231.968182 98.939877 
L 199.69575 98.939877 
z
" style="fill:#1f77b4;"/>
   </g>
   <g id="patch_146">
    <path clip-path="url(#p98fdef9094)" d="M 199.69575 98.444457 
L 236.195454 98.444457 
L 236.195454 96.462775 
L 199.69575 96.462775 
z
" style="fill:#1f77b4;"/>
   </g>
   <g id="patch_147">
    <path clip-path="url(#p98fdef9094)" d="M 199.69575 95.967355 
L 210.831818 95.967355 
L 210.831818 93.985673 
L 199.69575 93.985673 
z
" style="fill:#1f77b4;"/>
   </g>
   <g id="patch_148">
    <path clip-path="url(#p98fdef9094)" d="M 199.69575 93.490253 
L 231.968182 93.490253 
L 231.968182 91.508571 
L 199.69575 91.508571 
z
" style="fill:#1f77b4;"/>
   </g>
   <g id="patch_149">
    <path clip-path="url(#p98fdef9094)" d="M 199.69575 91.013151 
L 242.536363 91.013151 
L 242.536363 89.03147 
L 199.69575 89.03147 
z
" style="fill:#1f77b4;"/>
   </g>
   <g id="patch_150">
    <path clip-path="url(#p98fdef9094)" d="M 199.69575 88.536049 
L 225.627273 88.536049 
L 225.627273 86.554368 
L 199.69575 86.554368 
z
" style="fill:#1f77b4;"/>
   </g>
   <g id="patch_151">
    <path clip-path="url(#p98fdef9094)" d="M 199.69575 86.058947 
L 210.831818 86.058947 
L 210.831818 84.077266 
L 199.69575 84.077266 
z
" style="fill:#1f77b4;"/>
   </g>
   <g id="patch_152">
    <path clip-path="url(#p98fdef9094)" d="M 199.69575 83.581846 
L 212.945455 83.581846 
L 212.945455 81.600164 
L 199.69575 81.600164 
z
" style="fill:#1f77b4;"/>
   </g>
   <g id="patch_153">
    <path clip-path="url(#p98fdef9094)" d="M 199.69575 81.104744 
L 204.490909 81.104744 
L 204.490909 79.123062 
L 199.69575 79.123062 
z
" style="fill:#1f77b4;"/>
   </g>
   <g id="patch_154">
    <path clip-path="url(#p98fdef9094)" d="M 199.69575 78.627642 
L 202.377273 78.627642 
L 202.377273 76.64596 
L 199.69575 76.64596 
z
" style="fill:#1f77b4;"/>
   </g>
   <g id="patch_155">
    <path clip-path="url(#p98fdef9094)" d="M 199.69575 76.15054 
L 206.604545 76.15054 
L 206.604545 74.168859 
L 199.69575 74.168859 
z
" style="fill:#1f77b4;"/>
   </g>
   <g id="patch_156">
    <path clip-path="url(#p98fdef9094)" d="M 199.69575 73.673438 
L 196.036364 73.673438 
L 196.036364 71.691757 
L 199.69575 71.691757 
z
" style="fill:#1f77b4;"/>
   </g>
   <g id="patch_157">
    <path clip-path="url(#p98fdef9094)" d="M 199.69575 71.196336 
L 185.468182 71.196336 
L 185.468182 69.214655 
L 199.69575 69.214655 
z
" style="fill:#1f77b4;"/>
   </g>
   <g id="patch_158">
    <path clip-path="url(#p98fdef9094)" d="M 199.69575 68.719234 
L 202.377273 68.719234 
L 202.377273 66.737553 
L 199.69575 66.737553 
z
" style="fill:#1f77b4;"/>
   </g>
   <g id="patch_159">
    <path clip-path="url(#p98fdef9094)" d="M 199.69575 66.242133 
L 181.240909 66.242133 
L 181.240909 64.260451 
L 199.69575 64.260451 
z
" style="fill:#1f77b4;"/>
   </g>
   <g id="patch_160">
    <path clip-path="url(#p98fdef9094)" d="M 199.69575 63.765031 
L 191.809091 63.765031 
L 191.809091 61.783349 
L 199.69575 61.783349 
z
" style="fill:#1f77b4;"/>
   </g>
   <g id="patch_161">
    <path clip-path="url(#p98fdef9094)" d="M 199.69575 61.287929 
L 215.059091 61.287929 
L 215.059091 59.306247 
L 199.69575 59.306247 
z
" style="fill:#1f77b4;"/>
   </g>
   <g id="patch_162">
    <path clip-path="url(#p98fdef9094)" d="M 199.69575 58.810827 
L 204.490909 58.810827 
L 204.490909 56.829146 
L 199.69575 56.829146 
z
" style="fill:#1f77b4;"/>
   </g>
   <g id="patch_163">
    <path clip-path="url(#p98fdef9094)" d="M 199.69575 56.333725 
L 215.059091 56.333725 
L 215.059091 54.352044 
L 199.69575 54.352044 
z
" style="fill:#1f77b4;"/>
   </g>
   <g id="patch_164">
    <path clip-path="url(#p98fdef9094)" d="M 199.69575 53.856623 
L 193.922727 53.856623 
L 193.922727 51.874942 
L 199.69575 51.874942 
z
" style="fill:#1f77b4;"/>
   </g>
   <g id="patch_165">
    <path clip-path="url(#p98fdef9094)" d="M 199.69575 51.379522 
L 204.490909 51.379522 
L 204.490909 49.39784 
L 199.69575 49.39784 
z
" style="fill:#1f77b4;"/>
   </g>
   <g id="patch_166">
    <path clip-path="url(#p98fdef9094)" d="M 199.69575 48.90242 
L 210.831817 48.90242 
L 210.831817 46.920738 
L 199.69575 46.920738 
z
" style="fill:#1f77b4;"/>
   </g>
   <g id="patch_167">
    <path clip-path="url(#p98fdef9094)" d="M 199.69575 46.425318 
L 221.4 46.425318 
L 221.4 44.443636 
L 199.69575 44.443636 
z
" style="fill:#1f77b4;"/>
   </g>
   <g id="matplotlib.axis_3"/>
   <g id="matplotlib.axis_4">
    <g id="ytick_6">
     <g id="line2d_6">
      <g>
       <use style="stroke:#000000;stroke-width:0.8;" x="165.6" xlink:href="#m8225475973" y="42.957375"/>
      </g>
     </g>
    </g>
    <g id="ytick_7">
     <g id="line2d_7">
      <g>
       <use style="stroke:#000000;stroke-width:0.8;" x="165.6" xlink:href="#m8225475973" y="92.499412"/>
      </g>
     </g>
    </g>
    <g id="ytick_8">
     <g id="line2d_8">
      <g>
       <use style="stroke:#000000;stroke-width:0.8;" x="165.6" xlink:href="#m8225475973" y="142.041449"/>
      </g>
     </g>
    </g>
    <g id="ytick_9">
     <g id="line2d_9">
      <g>
       <use style="stroke:#000000;stroke-width:0.8;" x="165.6" xlink:href="#m8225475973" y="191.583486"/>
      </g>
     </g>
    </g>
    <g id="ytick_10">
     <g id="line2d_10">
      <g>
       <use style="stroke:#000000;stroke-width:0.8;" x="165.6" xlink:href="#m8225475973" y="241.125523"/>
      </g>
     </g>
    </g>
   </g>
   <g id="patch_168">
    <path d="M 165.6 252 
L 165.6 34.56 
" style="fill:none;stroke:#000000;stroke-linecap:square;stroke-linejoin:miter;stroke-width:0.8;"/>
   </g>
   <g id="patch_169">
    <path d="M 277.2 252 
L 277.2 34.56 
" style="fill:none;stroke:#000000;stroke-linecap:square;stroke-linejoin:miter;stroke-width:0.8;"/>
   </g>
   <g id="patch_170">
    <path d="M 165.6 252 
L 277.2 252 
" style="fill:none;stroke:#000000;stroke-linecap:square;stroke-linejoin:miter;stroke-width:0.8;"/>
   </g>
   <g id="patch_171">
    <path d="M 165.6 34.56 
L 277.2 34.56 
" style="fill:none;stroke:#000000;stroke-linecap:square;stroke-linejoin:miter;stroke-width:0.8;"/>
   </g>
  </g>
  <g id="axes_3">
   <g id="patch_172">
    <path d="M 277.2 252 
L 388.8 252 
L 388.8 34.56 
L 277.2 34.56 
z
" style="fill:#ffffff;"/>
   </g>
   <g id="patch_173">
    <path clip-path="url(#p44f1f8d2e1)" d="M 277.2 242.116364 
L 280.929323 242.116364 
L 280.929323 240.134682 
L 277.2 240.134682 
z
" style="fill:#1f77b4;"/>
   </g>
   <g id="patch_174">
    <path clip-path="url(#p44f1f8d2e1)" d="M 277.2 239.639262 
L 301.440602 239.639262 
L 301.440602 237.65758 
L 277.2 237.65758 
z
" style="fill:#1f77b4;"/>
   </g>
   <g id="patch_175">
    <path clip-path="url(#p44f1f8d2e1)" d="M 277.2 237.16216 
L 284.658647 237.16216 
L 284.658647 235.180478 
L 277.2 235.180478 
z
" style="fill:#1f77b4;"/>
   </g>
   <g id="patch_176">
    <path clip-path="url(#p44f1f8d2e1)" d="M 277.2 234.685058 
L 288.38797 234.685058 
L 288.38797 232.703377 
L 277.2 232.703377 
z
" style="fill:#1f77b4;"/>
   </g>
   <g id="patch_177">
    <path clip-path="url(#p44f1f8d2e1)" d="M 277.2 232.207956 
L 301.440602 232.207956 
L 301.440602 230.226275 
L 277.2 230.226275 
z
" style="fill:#1f77b4;"/>
   </g>
   <g id="patch_178">
    <path clip-path="url(#p44f1f8d2e1)" d="M 277.2 229.730854 
L 292.117293 229.730854 
L 292.117293 227.749173 
L 277.2 227.749173 
z
" style="fill:#1f77b4;"/>
   </g>
   <g id="patch_179">
    <path clip-path="url(#p44f1f8d2e1)" d="M 277.2 227.253753 
L 293.981955 227.253753 
L 293.981955 225.272071 
L 277.2 225.272071 
z
" style="fill:#1f77b4;"/>
   </g>
   <g id="patch_180">
    <path clip-path="url(#p44f1f8d2e1)" d="M 277.2 224.776651 
L 299.57594 224.776651 
L 299.57594 222.794969 
L 277.2 222.794969 
z
" style="fill:#1f77b4;"/>
   </g>
   <g id="patch_181">
    <path clip-path="url(#p44f1f8d2e1)" d="M 277.2 222.299549 
L 299.57594 222.299549 
L 299.57594 220.317867 
L 277.2 220.317867 
z
" style="fill:#1f77b4;"/>
   </g>
   <g id="patch_182">
    <path clip-path="url(#p44f1f8d2e1)" d="M 277.2 219.822447 
L 297.711278 219.822447 
L 297.711278 217.840766 
L 277.2 217.840766 
z
" style="fill:#1f77b4;"/>
   </g>
   <g id="patch_183">
    <path clip-path="url(#p44f1f8d2e1)" d="M 277.2 217.345345 
L 305.169925 217.345345 
L 305.169925 215.363664 
L 277.2 215.363664 
z
" style="fill:#1f77b4;"/>
   </g>
   <g id="patch_184">
    <path clip-path="url(#p44f1f8d2e1)" d="M 277.2 214.868243 
L 312.628571 214.868243 
L 312.628571 212.886562 
L 277.2 212.886562 
z
" style="fill:#1f77b4;"/>
   </g>
   <g id="patch_185">
    <path clip-path="url(#p44f1f8d2e1)" d="M 277.2 212.391141 
L 305.169925 212.391141 
L 305.169925 210.40946 
L 277.2 210.40946 
z
" style="fill:#1f77b4;"/>
   </g>
   <g id="patch_186">
    <path clip-path="url(#p44f1f8d2e1)" d="M 277.2 209.91404 
L 305.169925 209.91404 
L 305.169925 207.932358 
L 277.2 207.932358 
z
" style="fill:#1f77b4;"/>
   </g>
   <g id="patch_187">
    <path clip-path="url(#p44f1f8d2e1)" d="M 277.2 207.436938 
L 290.252632 207.436938 
L 290.252632 205.455256 
L 277.2 205.455256 
z
" style="fill:#1f77b4;"/>
   </g>
   <g id="patch_188">
    <path clip-path="url(#p44f1f8d2e1)" d="M 277.2 204.959836 
L 308.899248 204.959836 
L 308.899248 202.978154 
L 277.2 202.978154 
z
" style="fill:#1f77b4;"/>
   </g>
   <g id="patch_189">
    <path clip-path="url(#p44f1f8d2e1)" d="M 277.2 202.482734 
L 303.305263 202.482734 
L 303.305263 200.501053 
L 277.2 200.501053 
z
" style="fill:#1f77b4;"/>
   </g>
   <g id="patch_190">
    <path clip-path="url(#p44f1f8d2e1)" d="M 277.2 200.005632 
L 305.169925 200.005632 
L 305.169925 198.023951 
L 277.2 198.023951 
z
" style="fill:#1f77b4;"/>
   </g>
   <g id="patch_191">
    <path clip-path="url(#p44f1f8d2e1)" d="M 277.2 197.52853 
L 320.087218 197.52853 
L 320.087218 195.546849 
L 277.2 195.546849 
z
" style="fill:#1f77b4;"/>
   </g>
   <g id="patch_192">
    <path clip-path="url(#p44f1f8d2e1)" d="M 277.2 195.051429 
L 308.899248 195.051429 
L 308.899248 193.069747 
L 277.2 193.069747 
z
" style="fill:#1f77b4;"/>
   </g>
   <g id="patch_193">
    <path clip-path="url(#p44f1f8d2e1)" d="M 277.2 192.574327 
L 318.222556 192.574327 
L 318.222556 190.592645 
L 277.2 190.592645 
z
" style="fill:#1f77b4;"/>
   </g>
   <g id="patch_194">
    <path clip-path="url(#p44f1f8d2e1)" d="M 277.2 190.097225 
L 305.169925 190.097225 
L 305.169925 188.115543 
L 277.2 188.115543 
z
" style="fill:#1f77b4;"/>
   </g>
   <g id="patch_195">
    <path clip-path="url(#p44f1f8d2e1)" d="M 277.2 187.620123 
L 307.034586 187.620123 
L 307.034586 185.638442 
L 277.2 185.638442 
z
" style="fill:#1f77b4;"/>
   </g>
   <g id="patch_196">
    <path clip-path="url(#p44f1f8d2e1)" d="M 277.2 185.143021 
L 310.76391 185.143021 
L 310.76391 183.16134 
L 277.2 183.16134 
z
" style="fill:#1f77b4;"/>
   </g>
   <g id="patch_197">
    <path clip-path="url(#p44f1f8d2e1)" d="M 277.2 182.665919 
L 318.222556 182.665919 
L 318.222556 180.684238 
L 277.2 180.684238 
z
" style="fill:#1f77b4;"/>
   </g>
   <g id="patch_198">
    <path clip-path="url(#p44f1f8d2e1)" d="M 277.2 180.188817 
L 316.357895 180.188817 
L 316.357895 178.207136 
L 277.2 178.207136 
z
" style="fill:#1f77b4;"/>
   </g>
   <g id="patch_199">
    <path clip-path="url(#p44f1f8d2e1)" d="M 277.2 177.711716 
L 336.869173 177.711716 
L 336.869173 175.730034 
L 277.2 175.730034 
z
" style="fill:#1f77b4;"/>
   </g>
   <g id="patch_200">
    <path clip-path="url(#p44f1f8d2e1)" d="M 277.2 175.234614 
L 340.598496 175.234614 
L 340.598496 173.252932 
L 277.2 173.252932 
z
" style="fill:#1f77b4;"/>
   </g>
   <g id="patch_201">
    <path clip-path="url(#p44f1f8d2e1)" d="M 277.2 172.757512 
L 331.275188 172.757512 
L 331.275188 170.77583 
L 277.2 170.77583 
z
" style="fill:#1f77b4;"/>
   </g>
   <g id="patch_202">
    <path clip-path="url(#p44f1f8d2e1)" d="M 277.2 170.28041 
L 331.275188 170.28041 
L 331.275188 168.298729 
L 277.2 168.298729 
z
" style="fill:#1f77b4;"/>
   </g>
   <g id="patch_203">
    <path clip-path="url(#p44f1f8d2e1)" d="M 277.2 167.803308 
L 331.275188 167.803308 
L 331.275188 165.821627 
L 277.2 165.821627 
z
" style="fill:#1f77b4;"/>
   </g>
   <g id="patch_204">
    <path clip-path="url(#p44f1f8d2e1)" d="M 277.2 165.326206 
L 333.13985 165.326206 
L 333.13985 163.344525 
L 277.2 163.344525 
z
" style="fill:#1f77b4;"/>
   </g>
   <g id="patch_205">
    <path clip-path="url(#p44f1f8d2e1)" d="M 277.2 162.849105 
L 329.410526 162.849105 
L 329.410526 160.867423 
L 277.2 160.867423 
z
" style="fill:#1f77b4;"/>
   </g>
   <g id="patch_206">
    <path clip-path="url(#p44f1f8d2e1)" d="M 277.2 160.372003 
L 349.921805 160.372003 
L 349.921805 158.390321 
L 277.2 158.390321 
z
" style="fill:#1f77b4;"/>
   </g>
   <g id="patch_207">
    <path clip-path="url(#p44f1f8d2e1)" d="M 277.2 157.894901 
L 348.057143 157.894901 
L 348.057143 155.913219 
L 277.2 155.913219 
z
" style="fill:#1f77b4;"/>
   </g>
   <g id="patch_208">
    <path clip-path="url(#p44f1f8d2e1)" d="M 277.2 155.417799 
L 323.816541 155.417799 
L 323.816541 153.436118 
L 277.2 153.436118 
z
" style="fill:#1f77b4;"/>
   </g>
   <g id="patch_209">
    <path clip-path="url(#p44f1f8d2e1)" d="M 277.2 152.940697 
L 342.463158 152.940697 
L 342.463158 150.959016 
L 277.2 150.959016 
z
" style="fill:#1f77b4;"/>
   </g>
   <g id="patch_210">
    <path clip-path="url(#p44f1f8d2e1)" d="M 277.2 150.463595 
L 346.192481 150.463595 
L 346.192481 148.481914 
L 277.2 148.481914 
z
" style="fill:#1f77b4;"/>
   </g>
   <g id="patch_211">
    <path clip-path="url(#p44f1f8d2e1)" d="M 277.2 147.986494 
L 355.515789 147.986494 
L 355.515789 146.004812 
L 277.2 146.004812 
z
" style="fill:#1f77b4;"/>
   </g>
   <g id="patch_212">
    <path clip-path="url(#p44f1f8d2e1)" d="M 277.2 145.509392 
L 348.057143 145.509392 
L 348.057143 143.52771 
L 277.2 143.52771 
z
" style="fill:#1f77b4;"/>
   </g>
   <g id="patch_213">
    <path clip-path="url(#p44f1f8d2e1)" d="M 277.2 143.03229 
L 327.545865 143.03229 
L 327.545865 141.050608 
L 277.2 141.050608 
z
" style="fill:#1f77b4;"/>
   </g>
   <g id="patch_214">
    <path clip-path="url(#p44f1f8d2e1)" d="M 277.2 140.555188 
L 342.463158 140.555188 
L 342.463158 138.573506 
L 277.2 138.573506 
z
" style="fill:#1f77b4;"/>
   </g>
   <g id="patch_215">
    <path clip-path="url(#p44f1f8d2e1)" d="M 277.2 138.078086 
L 376.027068 138.078086 
L 376.027068 136.096405 
L 277.2 136.096405 
z
" style="fill:#1f77b4;"/>
   </g>
   <g id="patch_216">
    <path clip-path="url(#p44f1f8d2e1)" d="M 277.2 135.600984 
L 349.921805 135.600984 
L 349.921805 133.619303 
L 277.2 133.619303 
z
" style="fill:#1f77b4;"/>
   </g>
   <g id="patch_217">
    <path clip-path="url(#p44f1f8d2e1)" d="M 277.2 133.123882 
L 379.756391 133.123882 
L 379.756391 131.142201 
L 277.2 131.142201 
z
" style="fill:#1f77b4;"/>
   </g>
   <g id="patch_218">
    <path clip-path="url(#p44f1f8d2e1)" d="M 277.2 130.646781 
L 346.192481 130.646781 
L 346.192481 128.665099 
L 277.2 128.665099 
z
" style="fill:#1f77b4;"/>
   </g>
   <g id="patch_219">
    <path clip-path="url(#p44f1f8d2e1)" d="M 277.2 128.169679 
L 364.839098 128.169679 
L 364.839098 126.187997 
L 277.2 126.187997 
z
" style="fill:#1f77b4;"/>
   </g>
   <g id="patch_220">
    <path clip-path="url(#p44f1f8d2e1)" d="M 277.2 125.692577 
L 359.245113 125.692577 
L 359.245113 123.710895 
L 277.2 123.710895 
z
" style="fill:#1f77b4;"/>
   </g>
   <g id="patch_221">
    <path clip-path="url(#p44f1f8d2e1)" d="M 277.2 123.215475 
L 366.703759 123.215475 
L 366.703759 121.233794 
L 277.2 121.233794 
z
" style="fill:#1f77b4;"/>
   </g>
   <g id="patch_222">
    <path clip-path="url(#p44f1f8d2e1)" d="M 277.2 120.738373 
L 355.515789 120.738373 
L 355.515789 118.756692 
L 277.2 118.756692 
z
" style="fill:#1f77b4;"/>
   </g>
   <g id="patch_223">
    <path clip-path="url(#p44f1f8d2e1)" d="M 277.2 118.261271 
L 372.297744 118.261271 
L 372.297744 116.27959 
L 277.2 116.27959 
z
" style="fill:#1f77b4;"/>
   </g>
   <g id="patch_224">
    <path clip-path="url(#p44f1f8d2e1)" d="M 277.2 115.78417 
L 370.433083 115.78417 
L 370.433083 113.802488 
L 277.2 113.802488 
z
" style="fill:#1f77b4;"/>
   </g>
   <g id="patch_225">
    <path clip-path="url(#p44f1f8d2e1)" d="M 277.2 113.307068 
L 379.756391 113.307068 
L 379.756391 111.325386 
L 277.2 111.325386 
z
" style="fill:#1f77b4;"/>
   </g>
   <g id="patch_226">
    <path clip-path="url(#p44f1f8d2e1)" d="M 277.2 110.829966 
L 379.756391 110.829966 
L 379.756391 108.848284 
L 277.2 108.848284 
z
" style="fill:#1f77b4;"/>
   </g>
   <g id="patch_227">
    <path clip-path="url(#p44f1f8d2e1)" d="M 277.2 108.352864 
L 368.568421 108.352864 
L 368.568421 106.371183 
L 277.2 106.371183 
z
" style="fill:#1f77b4;"/>
   </g>
   <g id="patch_228">
    <path clip-path="url(#p44f1f8d2e1)" d="M 277.2 105.875762 
L 362.974436 105.875762 
L 362.974436 103.894081 
L 277.2 103.894081 
z
" style="fill:#1f77b4;"/>
   </g>
   <g id="patch_229">
    <path clip-path="url(#p44f1f8d2e1)" d="M 277.2 103.39866 
L 361.109774 103.39866 
L 361.109774 101.416979 
L 277.2 101.416979 
z
" style="fill:#1f77b4;"/>
   </g>
   <g id="patch_230">
    <path clip-path="url(#p44f1f8d2e1)" d="M 277.2 100.921558 
L 364.839098 100.921558 
L 364.839098 98.939877 
L 277.2 98.939877 
z
" style="fill:#1f77b4;"/>
   </g>
   <g id="patch_231">
    <path clip-path="url(#p44f1f8d2e1)" d="M 277.2 98.444457 
L 372.297744 98.444457 
L 372.297744 96.462775 
L 277.2 96.462775 
z
" style="fill:#1f77b4;"/>
   </g>
   <g id="patch_232">
    <path clip-path="url(#p44f1f8d2e1)" d="M 277.2 95.967355 
L 383.485714 95.967355 
L 383.485714 93.985673 
L 277.2 93.985673 
z
" style="fill:#1f77b4;"/>
   </g>
   <g id="patch_233">
    <path clip-path="url(#p44f1f8d2e1)" d="M 277.2 93.490253 
L 361.109774 93.490253 
L 361.109774 91.508571 
L 277.2 91.508571 
z
" style="fill:#1f77b4;"/>
   </g>
   <g id="patch_234">
    <path clip-path="url(#p44f1f8d2e1)" d="M 277.2 91.013151 
L 361.109774 91.013151 
L 361.109774 89.03147 
L 277.2 89.03147 
z
" style="fill:#1f77b4;"/>
   </g>
   <g id="patch_235">
    <path clip-path="url(#p44f1f8d2e1)" d="M 277.2 88.536049 
L 355.515789 88.536049 
L 355.515789 86.554368 
L 277.2 86.554368 
z
" style="fill:#1f77b4;"/>
   </g>
   <g id="patch_236">
    <path clip-path="url(#p44f1f8d2e1)" d="M 277.2 86.058947 
L 357.380451 86.058947 
L 357.380451 84.077266 
L 277.2 84.077266 
z
" style="fill:#1f77b4;"/>
   </g>
   <g id="patch_237">
    <path clip-path="url(#p44f1f8d2e1)" d="M 277.2 83.581846 
L 376.027068 83.581846 
L 376.027068 81.600164 
L 277.2 81.600164 
z
" style="fill:#1f77b4;"/>
   </g>
   <g id="patch_238">
    <path clip-path="url(#p44f1f8d2e1)" d="M 277.2 81.104744 
L 342.463158 81.104744 
L 342.463158 79.123062 
L 277.2 79.123062 
z
" style="fill:#1f77b4;"/>
   </g>
   <g id="patch_239">
    <path clip-path="url(#p44f1f8d2e1)" d="M 277.2 78.627642 
L 351.786466 78.627642 
L 351.786466 76.64596 
L 277.2 76.64596 
z
" style="fill:#1f77b4;"/>
   </g>
   <g id="patch_240">
    <path clip-path="url(#p44f1f8d2e1)" d="M 277.2 76.15054 
L 366.703759 76.15054 
L 366.703759 74.168859 
L 277.2 74.168859 
z
" style="fill:#1f77b4;"/>
   </g>
   <g id="patch_241">
    <path clip-path="url(#p44f1f8d2e1)" d="M 277.2 73.673438 
L 376.027068 73.673438 
L 376.027068 71.691757 
L 277.2 71.691757 
z
" style="fill:#1f77b4;"/>
   </g>
   <g id="patch_242">
    <path clip-path="url(#p44f1f8d2e1)" d="M 277.2 71.196336 
L 333.13985 71.196336 
L 333.13985 69.214655 
L 277.2 69.214655 
z
" style="fill:#1f77b4;"/>
   </g>
   <g id="patch_243">
    <path clip-path="url(#p44f1f8d2e1)" d="M 277.2 68.719234 
L 368.568421 68.719234 
L 368.568421 66.737553 
L 277.2 66.737553 
z
" style="fill:#1f77b4;"/>
   </g>
   <g id="patch_244">
    <path clip-path="url(#p44f1f8d2e1)" d="M 277.2 66.242133 
L 361.109774 66.242133 
L 361.109774 64.260451 
L 277.2 64.260451 
z
" style="fill:#1f77b4;"/>
   </g>
   <g id="patch_245">
    <path clip-path="url(#p44f1f8d2e1)" d="M 277.2 63.765031 
L 359.245113 63.765031 
L 359.245113 61.783349 
L 277.2 61.783349 
z
" style="fill:#1f77b4;"/>
   </g>
   <g id="patch_246">
    <path clip-path="url(#p44f1f8d2e1)" d="M 277.2 61.287929 
L 357.380451 61.287929 
L 357.380451 59.306247 
L 277.2 59.306247 
z
" style="fill:#1f77b4;"/>
   </g>
   <g id="patch_247">
    <path clip-path="url(#p44f1f8d2e1)" d="M 277.2 58.810827 
L 374.162406 58.810827 
L 374.162406 56.829146 
L 277.2 56.829146 
z
" style="fill:#1f77b4;"/>
   </g>
   <g id="patch_248">
    <path clip-path="url(#p44f1f8d2e1)" d="M 277.2 56.333725 
L 366.703759 56.333725 
L 366.703759 54.352044 
L 277.2 54.352044 
z
" style="fill:#1f77b4;"/>
   </g>
   <g id="patch_249">
    <path clip-path="url(#p44f1f8d2e1)" d="M 277.2 53.856623 
L 351.786466 53.856623 
L 351.786466 51.874942 
L 277.2 51.874942 
z
" style="fill:#1f77b4;"/>
   </g>
   <g id="patch_250">
    <path clip-path="url(#p44f1f8d2e1)" d="M 277.2 51.379522 
L 331.275188 51.379522 
L 331.275188 49.39784 
L 277.2 49.39784 
z
" style="fill:#1f77b4;"/>
   </g>
   <g id="patch_251">
    <path clip-path="url(#p44f1f8d2e1)" d="M 277.2 48.90242 
L 325.681203 48.90242 
L 325.681203 46.920738 
L 277.2 46.920738 
z
" style="fill:#1f77b4;"/>
   </g>
   <g id="patch_252">
    <path clip-path="url(#p44f1f8d2e1)" d="M 277.2 46.425318 
L 312.628571 46.425318 
L 312.628571 44.443636 
L 277.2 44.443636 
z
" style="fill:#1f77b4;"/>
   </g>
   <g id="matplotlib.axis_5"/>
   <g id="matplotlib.axis_6">
    <g id="ytick_11">
     <g id="line2d_11">
      <g>
       <use style="stroke:#000000;stroke-width:0.8;" x="277.2" xlink:href="#m8225475973" y="42.957375"/>
      </g>
     </g>
    </g>
    <g id="ytick_12">
     <g id="line2d_12">
      <g>
       <use style="stroke:#000000;stroke-width:0.8;" x="277.2" xlink:href="#m8225475973" y="92.499412"/>
      </g>
     </g>
    </g>
    <g id="ytick_13">
     <g id="line2d_13">
      <g>
       <use style="stroke:#000000;stroke-width:0.8;" x="277.2" xlink:href="#m8225475973" y="142.041449"/>
      </g>
     </g>
    </g>
    <g id="ytick_14">
     <g id="line2d_14">
      <g>
       <use style="stroke:#000000;stroke-width:0.8;" x="277.2" xlink:href="#m8225475973" y="191.583486"/>
      </g>
     </g>
    </g>
    <g id="ytick_15">
     <g id="line2d_15">
      <g>
       <use style="stroke:#000000;stroke-width:0.8;" x="277.2" xlink:href="#m8225475973" y="241.125523"/>
      </g>
     </g>
    </g>
   </g>
   <g id="patch_253">
    <path d="M 277.2 252 
L 277.2 34.56 
" style="fill:none;stroke:#000000;stroke-linecap:square;stroke-linejoin:miter;stroke-width:0.8;"/>
   </g>
   <g id="patch_254">
    <path d="M 388.8 252 
L 388.8 34.56 
" style="fill:none;stroke:#000000;stroke-linecap:square;stroke-linejoin:miter;stroke-width:0.8;"/>
   </g>
   <g id="patch_255">
    <path d="M 277.2 252 
L 388.8 252 
" style="fill:none;stroke:#000000;stroke-linecap:square;stroke-linejoin:miter;stroke-width:0.8;"/>
   </g>
   <g id="patch_256">
    <path d="M 277.2 34.56 
L 388.8 34.56 
" style="fill:none;stroke:#000000;stroke-linecap:square;stroke-linejoin:miter;stroke-width:0.8;"/>
   </g>
  </g>
 </g>
 <defs>
  <clipPath id="p07d1a82186">
   <rect height="217.44" width="111.6" x="54" y="34.56"/>
  </clipPath>
  <clipPath id="p98fdef9094">
   <rect height="217.44" width="111.6" x="165.6" y="34.56"/>
  </clipPath>
  <clipPath id="p44f1f8d2e1">
   <rect height="217.44" width="111.6" x="277.2" y="34.56"/>
  </clipPath>
 </defs>
</svg>
