<?xml version="1.0" encoding="utf-8" standalone="no"?>
<!DOCTYPE svg PUBLIC "-//W3C//DTD SVG 1.1//EN"
  "http://www.w3.org/Graphics/SVG/1.1/DTD/svg11.dtd">
<!-- Created with matplotlib (https://matplotlib.org/) -->
<svg height="288pt" version="1.1" viewBox="0 0 432 288" width="432pt" xmlns="http://www.w3.org/2000/svg" xmlns:xlink="http://www.w3.org/1999/xlink">
 <metadata>
  <rdf:RDF xmlns:cc="http://creativecommons.org/ns#" xmlns:dc="http://purl.org/dc/elements/1.1/" xmlns:rdf="http://www.w3.org/1999/02/22-rdf-syntax-ns#">
   <cc:Work>
    <dc:type rdf:resource="http://purl.org/dc/dcmitype/StillImage"/>
    <dc:date>2021-08-24T12:26:42.340916</dc:date>
    <dc:format>image/svg+xml</dc:format>
    <dc:creator>
     <cc:Agent>
      <dc:title>Matplotlib v3.3.4, https://matplotlib.org/</dc:title>
     </cc:Agent>
    </dc:creator>
   </cc:Work>
  </rdf:RDF>
 </metadata>
 <defs>
  <style type="text/css">*{stroke-linecap:butt;stroke-linejoin:round;}</style>
 </defs>
 <g id="figure_1">
  <g id="patch_1">
   <path d="M 0 288 
L 432 288 
L 432 0 
L 0 0 
z
" style="fill:none;"/>
  </g>
  <g id="axes_1">
   <g id="patch_2">
    <path d="M 54 252 
L 388.8 252 
L 388.8 34.56 
L 54 34.56 
z
" style="fill:#ffffff;"/>
   </g>
   <g id="patch_3">
    <path clip-path="url(#p07c494f9ba)" d="M 57.219231 252 
L 63.657692 252 
L 63.657692 242.103695 
L 57.219231 242.103695 
z
" style="fill:#8fbc8f;opacity:0.5;stroke:#000000;stroke-linejoin:miter;"/>
   </g>
   <g id="patch_4">
    <path clip-path="url(#p07c494f9ba)" d="M 70.096154 252 
L 76.534615 252 
L 76.534615 233.950907 
L 70.096154 233.950907 
z
" style="fill:#8fbc8f;opacity:0.5;stroke:#000000;stroke-linejoin:miter;"/>
   </g>
   <g id="patch_5">
    <path clip-path="url(#p07c494f9ba)" d="M 82.973077 252 
L 89.411538 252 
L 89.411538 234.122803 
L 82.973077 234.122803 
z
" style="fill:#8fbc8f;opacity:0.5;stroke:#000000;stroke-linejoin:miter;"/>
   </g>
   <g id="patch_6">
    <path clip-path="url(#p07c494f9ba)" d="M 95.85 252 
L 102.288462 252 
L 102.288462 232.723078 
L 95.85 232.723078 
z
" style="fill:#8fbc8f;opacity:0.5;stroke:#000000;stroke-linejoin:miter;"/>
   </g>
   <g id="patch_7">
    <path clip-path="url(#p07c494f9ba)" d="M 108.726923 252 
L 115.165385 252 
L 115.165385 221.893622 
L 108.726923 221.893622 
z
" style="fill:#8fbc8f;opacity:0.5;stroke:#000000;stroke-linejoin:miter;"/>
   </g>
   <g id="patch_8">
    <path clip-path="url(#p07c494f9ba)" d="M 121.603846 252 
L 128.042308 252 
L 128.042308 218.111907 
L 121.603846 218.111907 
z
" style="fill:#8fbc8f;opacity:0.5;stroke:#000000;stroke-linejoin:miter;"/>
   </g>
   <g id="patch_9">
    <path clip-path="url(#p07c494f9ba)" d="M 134.480769 252 
L 140.919231 252 
L 140.919231 232.231946 
L 134.480769 232.231946 
z
" style="fill:#8fbc8f;opacity:0.5;stroke:#000000;stroke-linejoin:miter;"/>
   </g>
   <g id="patch_10">
    <path clip-path="url(#p07c494f9ba)" d="M 147.357692 252 
L 153.796154 252 
L 153.796154 205.907283 
L 147.357692 205.907283 
z
" style="fill:#8fbc8f;opacity:0.5;stroke:#000000;stroke-linejoin:miter;"/>
   </g>
   <g id="patch_11">
    <path clip-path="url(#p07c494f9ba)" d="M 160.234615 252 
L 166.673077 252 
L 166.673077 169.170626 
L 160.234615 169.170626 
z
" style="fill:#8fbc8f;opacity:0.5;stroke:#000000;stroke-linejoin:miter;"/>
   </g>
   <g id="patch_12">
    <path clip-path="url(#p07c494f9ba)" d="M 173.111538 252 
L 179.55 252 
L 179.55 150.85141 
L 173.111538 150.85141 
z
" style="fill:#8fbc8f;opacity:0.5;stroke:#000000;stroke-linejoin:miter;"/>
   </g>
   <g id="patch_13">
    <path clip-path="url(#p07c494f9ba)" d="M 185.988462 252 
L 192.426923 252 
L 192.426923 138.450333 
L 185.988462 138.450333 
z
" style="fill:#8fbc8f;opacity:0.5;stroke:#000000;stroke-linejoin:miter;"/>
   </g>
   <g id="patch_14">
    <path clip-path="url(#p07c494f9ba)" d="M 198.865385 252 
L 205.303846 252 
L 205.303846 124.428521 
L 198.865385 124.428521 
z
" style="fill:#8fbc8f;opacity:0.5;stroke:#000000;stroke-linejoin:miter;"/>
   </g>
   <g id="patch_15">
    <path clip-path="url(#p07c494f9ba)" d="M 211.742308 252 
L 218.180769 252 
L 218.180769 121.187051 
L 211.742308 121.187051 
z
" style="fill:#8fbc8f;opacity:0.5;stroke:#000000;stroke-linejoin:miter;"/>
   </g>
   <g id="patch_16">
    <path clip-path="url(#p07c494f9ba)" d="M 224.619231 252 
L 231.057692 252 
L 231.057692 95.525415 
L 224.619231 95.525415 
z
" style="fill:#8fbc8f;opacity:0.5;stroke:#000000;stroke-linejoin:miter;"/>
   </g>
   <g id="patch_17">
    <path clip-path="url(#p07c494f9ba)" d="M 237.496154 252 
L 243.934615 252 
L 243.934615 86.218468 
L 237.496154 86.218468 
z
" style="fill:#8fbc8f;opacity:0.5;stroke:#000000;stroke-linejoin:miter;"/>
   </g>
   <g id="patch_18">
    <path clip-path="url(#p07c494f9ba)" d="M 250.373077 252 
L 256.811538 252 
L 256.811538 80.054764 
L 250.373077 80.054764 
z
" style="fill:#8fbc8f;opacity:0.5;stroke:#000000;stroke-linejoin:miter;"/>
   </g>
   <g id="patch_19">
    <path clip-path="url(#p07c494f9ba)" d="M 263.25 252 
L 269.688462 252 
L 269.688462 93.831011 
L 263.25 93.831011 
z
" style="fill:#8fbc8f;opacity:0.5;stroke:#000000;stroke-linejoin:miter;"/>
   </g>
   <g id="patch_20">
    <path clip-path="url(#p07c494f9ba)" d="M 276.126923 252 
L 282.565385 252 
L 282.565385 100.338507 
L 276.126923 100.338507 
z
" style="fill:#8fbc8f;opacity:0.5;stroke:#000000;stroke-linejoin:miter;"/>
   </g>
   <g id="patch_21">
    <path clip-path="url(#p07c494f9ba)" d="M 289.003846 252 
L 295.442308 252 
L 295.442308 79.44085 
L 289.003846 79.44085 
z
" style="fill:#8fbc8f;opacity:0.5;stroke:#000000;stroke-linejoin:miter;"/>
   </g>
   <g id="patch_22">
    <path clip-path="url(#p07c494f9ba)" d="M 301.880769 252 
L 308.319231 252 
L 308.319231 51.421782 
L 301.880769 51.421782 
z
" style="fill:#8fbc8f;opacity:0.5;stroke:#000000;stroke-linejoin:miter;"/>
   </g>
   <g id="patch_23">
    <path clip-path="url(#p07c494f9ba)" d="M 314.757692 252 
L 321.196154 252 
L 321.196154 44.914286 
L 314.757692 44.914286 
z
" style="fill:#8fbc8f;opacity:0.5;stroke:#000000;stroke-linejoin:miter;"/>
   </g>
   <g id="patch_24">
    <path clip-path="url(#p07c494f9ba)" d="M 327.634615 252 
L 334.073077 252 
L 334.073077 51.8638 
L 327.634615 51.8638 
z
" style="fill:#8fbc8f;opacity:0.5;stroke:#000000;stroke-linejoin:miter;"/>
   </g>
   <g id="patch_25">
    <path clip-path="url(#p07c494f9ba)" d="M 340.511538 252 
L 346.95 252 
L 346.95 57.241693 
L 340.511538 57.241693 
z
" style="fill:#8fbc8f;opacity:0.5;stroke:#000000;stroke-linejoin:miter;"/>
   </g>
   <g id="patch_26">
    <path clip-path="url(#p07c494f9ba)" d="M 353.388462 252 
L 359.826923 252 
L 359.826923 61.686436 
L 353.388462 61.686436 
z
" style="fill:#8fbc8f;opacity:0.5;stroke:#000000;stroke-linejoin:miter;"/>
   </g>
   <g id="patch_27">
    <path clip-path="url(#p07c494f9ba)" d="M 366.265385 252 
L 372.703846 252 
L 372.703846 110.701387 
L 366.265385 110.701387 
z
" style="fill:#8fbc8f;opacity:0.5;stroke:#000000;stroke-linejoin:miter;"/>
   </g>
   <g id="patch_28">
    <path clip-path="url(#p07c494f9ba)" d="M 379.142308 252 
L 385.580769 252 
L 385.580769 248.488408 
L 379.142308 248.488408 
z
" style="fill:#8fbc8f;opacity:0.5;stroke:#000000;stroke-linejoin:miter;"/>
   </g>
   <g id="patch_29">
    <path clip-path="url(#p07c494f9ba)" d="M 57.219231 252 
L 63.657692 252 
L 63.657692 251.214189 
L 57.219231 251.214189 
z
" style="fill:#4682b4;opacity:0.5;stroke:#000000;stroke-linejoin:miter;"/>
   </g>
   <g id="patch_30">
    <path clip-path="url(#p07c494f9ba)" d="M 70.096154 252 
L 76.534615 252 
L 76.534615 250.035473 
L 70.096154 250.035473 
z
" style="fill:#4682b4;opacity:0.5;stroke:#000000;stroke-linejoin:miter;"/>
   </g>
   <g id="patch_31">
    <path clip-path="url(#p07c494f9ba)" d="M 82.973077 252 
L 89.411538 252 
L 89.411538 250.354709 
L 82.973077 250.354709 
z
" style="fill:#4682b4;opacity:0.5;stroke:#000000;stroke-linejoin:miter;"/>
   </g>
   <g id="patch_32">
    <path clip-path="url(#p07c494f9ba)" d="M 95.85 252 
L 102.288462 252 
L 102.288462 249.888133 
L 95.85 249.888133 
z
" style="fill:#4682b4;opacity:0.5;stroke:#000000;stroke-linejoin:miter;"/>
   </g>
   <g id="patch_33">
    <path clip-path="url(#p07c494f9ba)" d="M 108.726923 252 
L 115.165385 252 
L 115.165385 248.709417 
L 108.726923 248.709417 
z
" style="fill:#4682b4;opacity:0.5;stroke:#000000;stroke-linejoin:miter;"/>
   </g>
   <g id="patch_34">
    <path clip-path="url(#p07c494f9ba)" d="M 121.603846 252 
L 128.042308 252 
L 128.042308 246.916786 
L 121.603846 246.916786 
z
" style="fill:#4682b4;opacity:0.5;stroke:#000000;stroke-linejoin:miter;"/>
   </g>
   <g id="patch_35">
    <path clip-path="url(#p07c494f9ba)" d="M 134.480769 252 
L 140.919231 252 
L 140.919231 249.225105 
L 134.480769 249.225105 
z
" style="fill:#4682b4;opacity:0.5;stroke:#000000;stroke-linejoin:miter;"/>
   </g>
   <g id="patch_36">
    <path clip-path="url(#p07c494f9ba)" d="M 147.357692 252 
L 153.796154 252 
L 153.796154 244.092778 
L 147.357692 244.092778 
z
" style="fill:#4682b4;opacity:0.5;stroke:#000000;stroke-linejoin:miter;"/>
   </g>
   <g id="patch_37">
    <path clip-path="url(#p07c494f9ba)" d="M 160.234615 252 
L 166.673077 252 
L 166.673077 237.609839 
L 160.234615 237.609839 
z
" style="fill:#4682b4;opacity:0.5;stroke:#000000;stroke-linejoin:miter;"/>
   </g>
   <g id="patch_38">
    <path clip-path="url(#p07c494f9ba)" d="M 173.111538 252 
L 179.55 252 
L 179.55 234.834944 
L 173.111538 234.834944 
z
" style="fill:#4682b4;opacity:0.5;stroke:#000000;stroke-linejoin:miter;"/>
   </g>
   <g id="patch_39">
    <path clip-path="url(#p07c494f9ba)" d="M 185.988462 252 
L 192.426923 252 
L 192.426923 230.562098 
L 185.988462 230.562098 
z
" style="fill:#4682b4;opacity:0.5;stroke:#000000;stroke-linejoin:miter;"/>
   </g>
   <g id="patch_40">
    <path clip-path="url(#p07c494f9ba)" d="M 198.865385 252 
L 205.303846 252 
L 205.303846 228.425675 
L 198.865385 228.425675 
z
" style="fill:#4682b4;opacity:0.5;stroke:#000000;stroke-linejoin:miter;"/>
   </g>
   <g id="patch_41">
    <path clip-path="url(#p07c494f9ba)" d="M 211.742308 252 
L 218.180769 252 
L 218.180769 228.843137 
L 211.742308 228.843137 
z
" style="fill:#4682b4;opacity:0.5;stroke:#000000;stroke-linejoin:miter;"/>
   </g>
   <g id="patch_42">
    <path clip-path="url(#p07c494f9ba)" d="M 224.619231 252 
L 231.057692 252 
L 231.057692 223.072338 
L 224.619231 223.072338 
z
" style="fill:#4682b4;opacity:0.5;stroke:#000000;stroke-linejoin:miter;"/>
   </g>
   <g id="patch_43">
    <path clip-path="url(#p07c494f9ba)" d="M 237.496154 252 
L 243.934615 252 
L 243.934615 223.367017 
L 237.496154 223.367017 
z
" style="fill:#4682b4;opacity:0.5;stroke:#000000;stroke-linejoin:miter;"/>
   </g>
   <g id="patch_44">
    <path clip-path="url(#p07c494f9ba)" d="M 250.373077 252 
L 256.811538 252 
L 256.811538 219.708086 
L 250.373077 219.708086 
z
" style="fill:#4682b4;opacity:0.5;stroke:#000000;stroke-linejoin:miter;"/>
   </g>
   <g id="patch_45">
    <path clip-path="url(#p07c494f9ba)" d="M 263.25 252 
L 269.688462 252 
L 269.688462 222.48298 
L 263.25 222.48298 
z
" style="fill:#4682b4;opacity:0.5;stroke:#000000;stroke-linejoin:miter;"/>
   </g>
   <g id="patch_46">
    <path clip-path="url(#p07c494f9ba)" d="M 276.126923 252 
L 282.565385 252 
L 282.565385 221.32882 
L 276.126923 221.32882 
z
" style="fill:#4682b4;opacity:0.5;stroke:#000000;stroke-linejoin:miter;"/>
   </g>
   <g id="patch_47">
    <path clip-path="url(#p07c494f9ba)" d="M 289.003846 252 
L 295.442308 252 
L 295.442308 217.424323 
L 289.003846 217.424323 
z
" style="fill:#4682b4;opacity:0.5;stroke:#000000;stroke-linejoin:miter;"/>
   </g>
   <g id="patch_48">
    <path clip-path="url(#p07c494f9ba)" d="M 301.880769 252 
L 308.319231 252 
L 308.319231 214.526645 
L 301.880769 214.526645 
z
" style="fill:#4682b4;opacity:0.5;stroke:#000000;stroke-linejoin:miter;"/>
   </g>
   <g id="patch_49">
    <path clip-path="url(#p07c494f9ba)" d="M 314.757692 252 
L 321.196154 252 
L 321.196154 210.744931 
L 314.757692 210.744931 
z
" style="fill:#4682b4;opacity:0.5;stroke:#000000;stroke-linejoin:miter;"/>
   </g>
   <g id="patch_50">
    <path clip-path="url(#p07c494f9ba)" d="M 327.634615 252 
L 334.073077 252 
L 334.073077 214.13374 
L 327.634615 214.13374 
z
" style="fill:#4682b4;opacity:0.5;stroke:#000000;stroke-linejoin:miter;"/>
   </g>
   <g id="patch_51">
    <path clip-path="url(#p07c494f9ba)" d="M 340.511538 252 
L 346.95 252 
L 346.95 213.323372 
L 340.511538 213.323372 
z
" style="fill:#4682b4;opacity:0.5;stroke:#000000;stroke-linejoin:miter;"/>
   </g>
   <g id="patch_52">
    <path clip-path="url(#p07c494f9ba)" d="M 353.388462 252 
L 359.826923 252 
L 359.826923 213.789948 
L 353.388462 213.789948 
z
" style="fill:#4682b4;opacity:0.5;stroke:#000000;stroke-linejoin:miter;"/>
   </g>
   <g id="patch_53">
    <path clip-path="url(#p07c494f9ba)" d="M 366.265385 252 
L 372.703846 252 
L 372.703846 224.668517 
L 366.265385 224.668517 
z
" style="fill:#4682b4;opacity:0.5;stroke:#000000;stroke-linejoin:miter;"/>
   </g>
   <g id="patch_54">
    <path clip-path="url(#p07c494f9ba)" d="M 379.142308 252 
L 385.580769 252 
L 385.580769 251.287859 
L 379.142308 251.287859 
z
" style="fill:#4682b4;opacity:0.5;stroke:#000000;stroke-linejoin:miter;"/>
   </g>
   <g id="matplotlib.axis_1">
    <g id="xtick_1">
     <g id="line2d_1">
      <defs>
       <path d="M 0 0 
L 0 3.5 
" id="m509387e6c8" style="stroke:#000000;stroke-width:0.8;"/>
      </defs>
      <g>
       <use style="stroke:#000000;stroke-width:0.8;" x="60.438462" xlink:href="#m509387e6c8" y="252"/>
      </g>
     </g>
     <g id="text_1">
      <!-- 1996 -->
      <g transform="translate(53.391701 282.368774)rotate(-45)scale(0.1 -0.1)">
       <defs>
        <path d="M 12.40625 8.296875 
L 28.515625 8.296875 
L 28.515625 63.921875 
L 10.984375 60.40625 
L 10.984375 69.390625 
L 28.421875 72.90625 
L 38.28125 72.90625 
L 38.28125 8.296875 
L 54.390625 8.296875 
L 54.390625 0 
L 12.40625 0 
z
" id="DejaVuSans-49"/>
        <path d="M 10.984375 1.515625 
L 10.984375 10.5 
Q 14.703125 8.734375 18.5 7.8125 
Q 22.3125 6.890625 25.984375 6.890625 
Q 35.75 6.890625 40.890625 13.453125 
Q 46.046875 20.015625 46.78125 33.40625 
Q 43.953125 29.203125 39.59375 26.953125 
Q 35.25 24.703125 29.984375 24.703125 
Q 19.046875 24.703125 12.671875 31.3125 
Q 6.296875 37.9375 6.296875 49.421875 
Q 6.296875 60.640625 12.9375 67.421875 
Q 19.578125 74.21875 30.609375 74.21875 
Q 43.265625 74.21875 49.921875 64.515625 
Q 56.59375 54.828125 56.59375 36.375 
Q 56.59375 19.140625 48.40625 8.859375 
Q 40.234375 -1.421875 26.421875 -1.421875 
Q 22.703125 -1.421875 18.890625 -0.6875 
Q 15.09375 0.046875 10.984375 1.515625 
z
M 30.609375 32.421875 
Q 37.25 32.421875 41.125 36.953125 
Q 45.015625 41.5 45.015625 49.421875 
Q 45.015625 57.28125 41.125 61.84375 
Q 37.25 66.40625 30.609375 66.40625 
Q 23.96875 66.40625 20.09375 61.84375 
Q 16.21875 57.28125 16.21875 49.421875 
Q 16.21875 41.5 20.09375 36.953125 
Q 23.96875 32.421875 30.609375 32.421875 
z
" id="DejaVuSans-57"/>
        <path d="M 33.015625 40.375 
Q 26.375 40.375 22.484375 35.828125 
Q 18.609375 31.296875 18.609375 23.390625 
Q 18.609375 15.53125 22.484375 10.953125 
Q 26.375 6.390625 33.015625 6.390625 
Q 39.65625 6.390625 43.53125 10.953125 
Q 47.40625 15.53125 47.40625 23.390625 
Q 47.40625 31.296875 43.53125 35.828125 
Q 39.65625 40.375 33.015625 40.375 
z
M 52.59375 71.296875 
L 52.59375 62.3125 
Q 48.875 64.0625 45.09375 64.984375 
Q 41.3125 65.921875 37.59375 65.921875 
Q 27.828125 65.921875 22.671875 59.328125 
Q 17.53125 52.734375 16.796875 39.40625 
Q 19.671875 43.65625 24.015625 45.921875 
Q 28.375 48.1875 33.59375 48.1875 
Q 44.578125 48.1875 50.953125 41.515625 
Q 57.328125 34.859375 57.328125 23.390625 
Q 57.328125 12.15625 50.6875 5.359375 
Q 44.046875 -1.421875 33.015625 -1.421875 
Q 20.359375 -1.421875 13.671875 8.265625 
Q 6.984375 17.96875 6.984375 36.375 
Q 6.984375 53.65625 15.1875 63.9375 
Q 23.390625 74.21875 37.203125 74.21875 
Q 40.921875 74.21875 44.703125 73.484375 
Q 48.484375 72.75 52.59375 71.296875 
z
" id="DejaVuSans-54"/>
       </defs>
       <use xlink:href="#DejaVuSans-49"/>
       <use x="63.623047" xlink:href="#DejaVuSans-57"/>
       <use x="127.246094" xlink:href="#DejaVuSans-57"/>
       <use x="190.869141" xlink:href="#DejaVuSans-54"/>
      </g>
     </g>
    </g>
    <g id="xtick_2">
     <g id="line2d_2">
      <g>
       <use style="stroke:#000000;stroke-width:0.8;" x="86.192308" xlink:href="#m509387e6c8" y="252"/>
      </g>
     </g>
     <g id="text_2">
      <!-- 1998 -->
      <g transform="translate(79.145547 282.368774)rotate(-45)scale(0.1 -0.1)">
       <defs>
        <path d="M 31.78125 34.625 
Q 24.75 34.625 20.71875 30.859375 
Q 16.703125 27.09375 16.703125 20.515625 
Q 16.703125 13.921875 20.71875 10.15625 
Q 24.75 6.390625 31.78125 6.390625 
Q 38.8125 6.390625 42.859375 10.171875 
Q 46.921875 13.96875 46.921875 20.515625 
Q 46.921875 27.09375 42.890625 30.859375 
Q 38.875 34.625 31.78125 34.625 
z
M 21.921875 38.8125 
Q 15.578125 40.375 12.03125 44.71875 
Q 8.5 49.078125 8.5 55.328125 
Q 8.5 64.0625 14.71875 69.140625 
Q 20.953125 74.21875 31.78125 74.21875 
Q 42.671875 74.21875 48.875 69.140625 
Q 55.078125 64.0625 55.078125 55.328125 
Q 55.078125 49.078125 51.53125 44.71875 
Q 48 40.375 41.703125 38.8125 
Q 48.828125 37.15625 52.796875 32.3125 
Q 56.78125 27.484375 56.78125 20.515625 
Q 56.78125 9.90625 50.3125 4.234375 
Q 43.84375 -1.421875 31.78125 -1.421875 
Q 19.734375 -1.421875 13.25 4.234375 
Q 6.78125 9.90625 6.78125 20.515625 
Q 6.78125 27.484375 10.78125 32.3125 
Q 14.796875 37.15625 21.921875 38.8125 
z
M 18.3125 54.390625 
Q 18.3125 48.734375 21.84375 45.5625 
Q 25.390625 42.390625 31.78125 42.390625 
Q 38.140625 42.390625 41.71875 45.5625 
Q 45.3125 48.734375 45.3125 54.390625 
Q 45.3125 60.0625 41.71875 63.234375 
Q 38.140625 66.40625 31.78125 66.40625 
Q 25.390625 66.40625 21.84375 63.234375 
Q 18.3125 60.0625 18.3125 54.390625 
z
" id="DejaVuSans-56"/>
       </defs>
       <use xlink:href="#DejaVuSans-49"/>
       <use x="63.623047" xlink:href="#DejaVuSans-57"/>
       <use x="127.246094" xlink:href="#DejaVuSans-57"/>
       <use x="190.869141" xlink:href="#DejaVuSans-56"/>
      </g>
     </g>
    </g>
    <g id="xtick_3">
     <g id="line2d_3">
      <g>
       <use style="stroke:#000000;stroke-width:0.8;" x="111.946154" xlink:href="#m509387e6c8" y="252"/>
      </g>
     </g>
     <g id="text_3">
      <!-- 2000 -->
      <g transform="translate(104.899393 282.368774)rotate(-45)scale(0.1 -0.1)">
       <defs>
        <path d="M 19.1875 8.296875 
L 53.609375 8.296875 
L 53.609375 0 
L 7.328125 0 
L 7.328125 8.296875 
Q 12.9375 14.109375 22.625 23.890625 
Q 32.328125 33.6875 34.8125 36.53125 
Q 39.546875 41.84375 41.421875 45.53125 
Q 43.3125 49.21875 43.3125 52.78125 
Q 43.3125 58.59375 39.234375 62.25 
Q 35.15625 65.921875 28.609375 65.921875 
Q 23.96875 65.921875 18.8125 64.3125 
Q 13.671875 62.703125 7.8125 59.421875 
L 7.8125 69.390625 
Q 13.765625 71.78125 18.9375 73 
Q 24.125 74.21875 28.421875 74.21875 
Q 39.75 74.21875 46.484375 68.546875 
Q 53.21875 62.890625 53.21875 53.421875 
Q 53.21875 48.921875 51.53125 44.890625 
Q 49.859375 40.875 45.40625 35.40625 
Q 44.1875 33.984375 37.640625 27.21875 
Q 31.109375 20.453125 19.1875 8.296875 
z
" id="DejaVuSans-50"/>
        <path d="M 31.78125 66.40625 
Q 24.171875 66.40625 20.328125 58.90625 
Q 16.5 51.421875 16.5 36.375 
Q 16.5 21.390625 20.328125 13.890625 
Q 24.171875 6.390625 31.78125 6.390625 
Q 39.453125 6.390625 43.28125 13.890625 
Q 47.125 21.390625 47.125 36.375 
Q 47.125 51.421875 43.28125 58.90625 
Q 39.453125 66.40625 31.78125 66.40625 
z
M 31.78125 74.21875 
Q 44.046875 74.21875 50.515625 64.515625 
Q 56.984375 54.828125 56.984375 36.375 
Q 56.984375 17.96875 50.515625 8.265625 
Q 44.046875 -1.421875 31.78125 -1.421875 
Q 19.53125 -1.421875 13.0625 8.265625 
Q 6.59375 17.96875 6.59375 36.375 
Q 6.59375 54.828125 13.0625 64.515625 
Q 19.53125 74.21875 31.78125 74.21875 
z
" id="DejaVuSans-48"/>
       </defs>
       <use xlink:href="#DejaVuSans-50"/>
       <use x="63.623047" xlink:href="#DejaVuSans-48"/>
       <use x="127.246094" xlink:href="#DejaVuSans-48"/>
       <use x="190.869141" xlink:href="#DejaVuSans-48"/>
      </g>
     </g>
    </g>
    <g id="xtick_4">
     <g id="line2d_4">
      <g>
       <use style="stroke:#000000;stroke-width:0.8;" x="137.7" xlink:href="#m509387e6c8" y="252"/>
      </g>
     </g>
     <g id="text_4">
      <!-- 2002 -->
      <g transform="translate(130.653239 282.368774)rotate(-45)scale(0.1 -0.1)">
       <use xlink:href="#DejaVuSans-50"/>
       <use x="63.623047" xlink:href="#DejaVuSans-48"/>
       <use x="127.246094" xlink:href="#DejaVuSans-48"/>
       <use x="190.869141" xlink:href="#DejaVuSans-50"/>
      </g>
     </g>
    </g>
    <g id="xtick_5">
     <g id="line2d_5">
      <g>
       <use style="stroke:#000000;stroke-width:0.8;" x="163.453846" xlink:href="#m509387e6c8" y="252"/>
      </g>
     </g>
     <g id="text_5">
      <!-- 2004 -->
      <g transform="translate(156.407085 282.368774)rotate(-45)scale(0.1 -0.1)">
       <defs>
        <path d="M 37.796875 64.3125 
L 12.890625 25.390625 
L 37.796875 25.390625 
z
M 35.203125 72.90625 
L 47.609375 72.90625 
L 47.609375 25.390625 
L 58.015625 25.390625 
L 58.015625 17.1875 
L 47.609375 17.1875 
L 47.609375 0 
L 37.796875 0 
L 37.796875 17.1875 
L 4.890625 17.1875 
L 4.890625 26.703125 
z
" id="DejaVuSans-52"/>
       </defs>
       <use xlink:href="#DejaVuSans-50"/>
       <use x="63.623047" xlink:href="#DejaVuSans-48"/>
       <use x="127.246094" xlink:href="#DejaVuSans-48"/>
       <use x="190.869141" xlink:href="#DejaVuSans-52"/>
      </g>
     </g>
    </g>
    <g id="xtick_6">
     <g id="line2d_6">
      <g>
       <use style="stroke:#000000;stroke-width:0.8;" x="189.207692" xlink:href="#m509387e6c8" y="252"/>
      </g>
     </g>
     <g id="text_6">
      <!-- 2006 -->
      <g transform="translate(182.160931 282.368774)rotate(-45)scale(0.1 -0.1)">
       <use xlink:href="#DejaVuSans-50"/>
       <use x="63.623047" xlink:href="#DejaVuSans-48"/>
       <use x="127.246094" xlink:href="#DejaVuSans-48"/>
       <use x="190.869141" xlink:href="#DejaVuSans-54"/>
      </g>
     </g>
    </g>
    <g id="xtick_7">
     <g id="line2d_7">
      <g>
       <use style="stroke:#000000;stroke-width:0.8;" x="214.961538" xlink:href="#m509387e6c8" y="252"/>
      </g>
     </g>
     <g id="text_7">
      <!-- 2008 -->
      <g transform="translate(207.914777 282.368774)rotate(-45)scale(0.1 -0.1)">
       <use xlink:href="#DejaVuSans-50"/>
       <use x="63.623047" xlink:href="#DejaVuSans-48"/>
       <use x="127.246094" xlink:href="#DejaVuSans-48"/>
       <use x="190.869141" xlink:href="#DejaVuSans-56"/>
      </g>
     </g>
    </g>
    <g id="xtick_8">
     <g id="line2d_8">
      <g>
       <use style="stroke:#000000;stroke-width:0.8;" x="240.715385" xlink:href="#m509387e6c8" y="252"/>
      </g>
     </g>
     <g id="text_8">
      <!-- 2010 -->
      <g transform="translate(233.668624 282.368774)rotate(-45)scale(0.1 -0.1)">
       <use xlink:href="#DejaVuSans-50"/>
       <use x="63.623047" xlink:href="#DejaVuSans-48"/>
       <use x="127.246094" xlink:href="#DejaVuSans-49"/>
       <use x="190.869141" xlink:href="#DejaVuSans-48"/>
      </g>
     </g>
    </g>
    <g id="xtick_9">
     <g id="line2d_9">
      <g>
       <use style="stroke:#000000;stroke-width:0.8;" x="266.469231" xlink:href="#m509387e6c8" y="252"/>
      </g>
     </g>
     <g id="text_9">
      <!-- 2012 -->
      <g transform="translate(259.42247 282.368774)rotate(-45)scale(0.1 -0.1)">
       <use xlink:href="#DejaVuSans-50"/>
       <use x="63.623047" xlink:href="#DejaVuSans-48"/>
       <use x="127.246094" xlink:href="#DejaVuSans-49"/>
       <use x="190.869141" xlink:href="#DejaVuSans-50"/>
      </g>
     </g>
    </g>
    <g id="xtick_10">
     <g id="line2d_10">
      <g>
       <use style="stroke:#000000;stroke-width:0.8;" x="292.223077" xlink:href="#m509387e6c8" y="252"/>
      </g>
     </g>
     <g id="text_10">
      <!-- 2014 -->
      <g transform="translate(285.176316 282.368774)rotate(-45)scale(0.1 -0.1)">
       <use xlink:href="#DejaVuSans-50"/>
       <use x="63.623047" xlink:href="#DejaVuSans-48"/>
       <use x="127.246094" xlink:href="#DejaVuSans-49"/>
       <use x="190.869141" xlink:href="#DejaVuSans-52"/>
      </g>
     </g>
    </g>
    <g id="xtick_11">
     <g id="line2d_11">
      <g>
       <use style="stroke:#000000;stroke-width:0.8;" x="317.976923" xlink:href="#m509387e6c8" y="252"/>
      </g>
     </g>
     <g id="text_11">
      <!-- 2016 -->
      <g transform="translate(310.930162 282.368774)rotate(-45)scale(0.1 -0.1)">
       <use xlink:href="#DejaVuSans-50"/>
       <use x="63.623047" xlink:href="#DejaVuSans-48"/>
       <use x="127.246094" xlink:href="#DejaVuSans-49"/>
       <use x="190.869141" xlink:href="#DejaVuSans-54"/>
      </g>
     </g>
    </g>
    <g id="xtick_12">
     <g id="line2d_12">
      <g>
       <use style="stroke:#000000;stroke-width:0.8;" x="343.730769" xlink:href="#m509387e6c8" y="252"/>
      </g>
     </g>
     <g id="text_12">
      <!-- 2018 -->
      <g transform="translate(336.684008 282.368774)rotate(-45)scale(0.1 -0.1)">
       <use xlink:href="#DejaVuSans-50"/>
       <use x="63.623047" xlink:href="#DejaVuSans-48"/>
       <use x="127.246094" xlink:href="#DejaVuSans-49"/>
       <use x="190.869141" xlink:href="#DejaVuSans-56"/>
      </g>
     </g>
    </g>
    <g id="xtick_13">
     <g id="line2d_13">
      <g>
       <use style="stroke:#000000;stroke-width:0.8;" x="369.484615" xlink:href="#m509387e6c8" y="252"/>
      </g>
     </g>
     <g id="text_13">
      <!-- 2020 -->
      <g transform="translate(362.437854 282.368774)rotate(-45)scale(0.1 -0.1)">
       <use xlink:href="#DejaVuSans-50"/>
       <use x="63.623047" xlink:href="#DejaVuSans-48"/>
       <use x="127.246094" xlink:href="#DejaVuSans-50"/>
       <use x="190.869141" xlink:href="#DejaVuSans-48"/>
      </g>
     </g>
    </g>
    <g id="text_14">
     <!-- Deposition Date -->
     <g transform="translate(181.128906 295.437773)scale(0.1 -0.1)">
      <defs>
       <path d="M 19.671875 64.796875 
L 19.671875 8.109375 
L 31.59375 8.109375 
Q 46.6875 8.109375 53.6875 14.9375 
Q 60.6875 21.78125 60.6875 36.53125 
Q 60.6875 51.171875 53.6875 57.984375 
Q 46.6875 64.796875 31.59375 64.796875 
z
M 9.8125 72.90625 
L 30.078125 72.90625 
Q 51.265625 72.90625 61.171875 64.09375 
Q 71.09375 55.28125 71.09375 36.53125 
Q 71.09375 17.671875 61.125 8.828125 
Q 51.171875 0 30.078125 0 
L 9.8125 0 
z
" id="DejaVuSans-68"/>
       <path d="M 56.203125 29.59375 
L 56.203125 25.203125 
L 14.890625 25.203125 
Q 15.484375 15.921875 20.484375 11.0625 
Q 25.484375 6.203125 34.421875 6.203125 
Q 39.59375 6.203125 44.453125 7.46875 
Q 49.3125 8.734375 54.109375 11.28125 
L 54.109375 2.78125 
Q 49.265625 0.734375 44.1875 -0.34375 
Q 39.109375 -1.421875 33.890625 -1.421875 
Q 20.796875 -1.421875 13.15625 6.1875 
Q 5.515625 13.8125 5.515625 26.8125 
Q 5.515625 40.234375 12.765625 48.109375 
Q 20.015625 56 32.328125 56 
Q 43.359375 56 49.78125 48.890625 
Q 56.203125 41.796875 56.203125 29.59375 
z
M 47.21875 32.234375 
Q 47.125 39.59375 43.09375 43.984375 
Q 39.0625 48.390625 32.421875 48.390625 
Q 24.90625 48.390625 20.390625 44.140625 
Q 15.875 39.890625 15.1875 32.171875 
z
" id="DejaVuSans-101"/>
       <path d="M 18.109375 8.203125 
L 18.109375 -20.796875 
L 9.078125 -20.796875 
L 9.078125 54.6875 
L 18.109375 54.6875 
L 18.109375 46.390625 
Q 20.953125 51.265625 25.265625 53.625 
Q 29.59375 56 35.59375 56 
Q 45.5625 56 51.78125 48.09375 
Q 58.015625 40.1875 58.015625 27.296875 
Q 58.015625 14.40625 51.78125 6.484375 
Q 45.5625 -1.421875 35.59375 -1.421875 
Q 29.59375 -1.421875 25.265625 0.953125 
Q 20.953125 3.328125 18.109375 8.203125 
z
M 48.6875 27.296875 
Q 48.6875 37.203125 44.609375 42.84375 
Q 40.53125 48.484375 33.40625 48.484375 
Q 26.265625 48.484375 22.1875 42.84375 
Q 18.109375 37.203125 18.109375 27.296875 
Q 18.109375 17.390625 22.1875 11.75 
Q 26.265625 6.109375 33.40625 6.109375 
Q 40.53125 6.109375 44.609375 11.75 
Q 48.6875 17.390625 48.6875 27.296875 
z
" id="DejaVuSans-112"/>
       <path d="M 30.609375 48.390625 
Q 23.390625 48.390625 19.1875 42.75 
Q 14.984375 37.109375 14.984375 27.296875 
Q 14.984375 17.484375 19.15625 11.84375 
Q 23.34375 6.203125 30.609375 6.203125 
Q 37.796875 6.203125 41.984375 11.859375 
Q 46.1875 17.53125 46.1875 27.296875 
Q 46.1875 37.015625 41.984375 42.703125 
Q 37.796875 48.390625 30.609375 48.390625 
z
M 30.609375 56 
Q 42.328125 56 49.015625 48.375 
Q 55.71875 40.765625 55.71875 27.296875 
Q 55.71875 13.875 49.015625 6.21875 
Q 42.328125 -1.421875 30.609375 -1.421875 
Q 18.84375 -1.421875 12.171875 6.21875 
Q 5.515625 13.875 5.515625 27.296875 
Q 5.515625 40.765625 12.171875 48.375 
Q 18.84375 56 30.609375 56 
z
" id="DejaVuSans-111"/>
       <path d="M 44.28125 53.078125 
L 44.28125 44.578125 
Q 40.484375 46.53125 36.375 47.5 
Q 32.28125 48.484375 27.875 48.484375 
Q 21.1875 48.484375 17.84375 46.4375 
Q 14.5 44.390625 14.5 40.28125 
Q 14.5 37.15625 16.890625 35.375 
Q 19.28125 33.59375 26.515625 31.984375 
L 29.59375 31.296875 
Q 39.15625 29.25 43.1875 25.515625 
Q 47.21875 21.78125 47.21875 15.09375 
Q 47.21875 7.46875 41.1875 3.015625 
Q 35.15625 -1.421875 24.609375 -1.421875 
Q 20.21875 -1.421875 15.453125 -0.5625 
Q 10.6875 0.296875 5.421875 2 
L 5.421875 11.28125 
Q 10.40625 8.6875 15.234375 7.390625 
Q 20.0625 6.109375 24.8125 6.109375 
Q 31.15625 6.109375 34.5625 8.28125 
Q 37.984375 10.453125 37.984375 14.40625 
Q 37.984375 18.0625 35.515625 20.015625 
Q 33.0625 21.96875 24.703125 23.78125 
L 21.578125 24.515625 
Q 13.234375 26.265625 9.515625 29.90625 
Q 5.8125 33.546875 5.8125 39.890625 
Q 5.8125 47.609375 11.28125 51.796875 
Q 16.75 56 26.8125 56 
Q 31.78125 56 36.171875 55.265625 
Q 40.578125 54.546875 44.28125 53.078125 
z
" id="DejaVuSans-115"/>
       <path d="M 9.421875 54.6875 
L 18.40625 54.6875 
L 18.40625 0 
L 9.421875 0 
z
M 9.421875 75.984375 
L 18.40625 75.984375 
L 18.40625 64.59375 
L 9.421875 64.59375 
z
" id="DejaVuSans-105"/>
       <path d="M 18.3125 70.21875 
L 18.3125 54.6875 
L 36.8125 54.6875 
L 36.8125 47.703125 
L 18.3125 47.703125 
L 18.3125 18.015625 
Q 18.3125 11.328125 20.140625 9.421875 
Q 21.96875 7.515625 27.59375 7.515625 
L 36.8125 7.515625 
L 36.8125 0 
L 27.59375 0 
Q 17.1875 0 13.234375 3.875 
Q 9.28125 7.765625 9.28125 18.015625 
L 9.28125 47.703125 
L 2.6875 47.703125 
L 2.6875 54.6875 
L 9.28125 54.6875 
L 9.28125 70.21875 
z
" id="DejaVuSans-116"/>
       <path d="M 54.890625 33.015625 
L 54.890625 0 
L 45.90625 0 
L 45.90625 32.71875 
Q 45.90625 40.484375 42.875 44.328125 
Q 39.84375 48.1875 33.796875 48.1875 
Q 26.515625 48.1875 22.3125 43.546875 
Q 18.109375 38.921875 18.109375 30.90625 
L 18.109375 0 
L 9.078125 0 
L 9.078125 54.6875 
L 18.109375 54.6875 
L 18.109375 46.1875 
Q 21.34375 51.125 25.703125 53.5625 
Q 30.078125 56 35.796875 56 
Q 45.21875 56 50.046875 50.171875 
Q 54.890625 44.34375 54.890625 33.015625 
z
" id="DejaVuSans-110"/>
       <path id="DejaVuSans-32"/>
       <path d="M 34.28125 27.484375 
Q 23.390625 27.484375 19.1875 25 
Q 14.984375 22.515625 14.984375 16.5 
Q 14.984375 11.71875 18.140625 8.90625 
Q 21.296875 6.109375 26.703125 6.109375 
Q 34.1875 6.109375 38.703125 11.40625 
Q 43.21875 16.703125 43.21875 25.484375 
L 43.21875 27.484375 
z
M 52.203125 31.203125 
L 52.203125 0 
L 43.21875 0 
L 43.21875 8.296875 
Q 40.140625 3.328125 35.546875 0.953125 
Q 30.953125 -1.421875 24.3125 -1.421875 
Q 15.921875 -1.421875 10.953125 3.296875 
Q 6 8.015625 6 15.921875 
Q 6 25.140625 12.171875 29.828125 
Q 18.359375 34.515625 30.609375 34.515625 
L 43.21875 34.515625 
L 43.21875 35.40625 
Q 43.21875 41.609375 39.140625 45 
Q 35.0625 48.390625 27.6875 48.390625 
Q 23 48.390625 18.546875 47.265625 
Q 14.109375 46.140625 10.015625 43.890625 
L 10.015625 52.203125 
Q 14.9375 54.109375 19.578125 55.046875 
Q 24.21875 56 28.609375 56 
Q 40.484375 56 46.34375 49.84375 
Q 52.203125 43.703125 52.203125 31.203125 
z
" id="DejaVuSans-97"/>
      </defs>
      <use xlink:href="#DejaVuSans-68"/>
      <use x="77.001953" xlink:href="#DejaVuSans-101"/>
      <use x="138.525391" xlink:href="#DejaVuSans-112"/>
      <use x="202.001953" xlink:href="#DejaVuSans-111"/>
      <use x="263.183594" xlink:href="#DejaVuSans-115"/>
      <use x="315.283203" xlink:href="#DejaVuSans-105"/>
      <use x="343.066406" xlink:href="#DejaVuSans-116"/>
      <use x="382.275391" xlink:href="#DejaVuSans-105"/>
      <use x="410.058594" xlink:href="#DejaVuSans-111"/>
      <use x="471.240234" xlink:href="#DejaVuSans-110"/>
      <use x="534.619141" xlink:href="#DejaVuSans-32"/>
      <use x="566.40625" xlink:href="#DejaVuSans-68"/>
      <use x="643.408203" xlink:href="#DejaVuSans-97"/>
      <use x="704.6875" xlink:href="#DejaVuSans-116"/>
      <use x="743.896484" xlink:href="#DejaVuSans-101"/>
     </g>
    </g>
   </g>
   <g id="matplotlib.axis_2">
    <g id="ytick_1">
     <g id="line2d_14">
      <defs>
       <path d="M 0 0 
L -3.5 0 
" id="m6e5d7c78a2" style="stroke:#000000;stroke-width:0.8;"/>
      </defs>
      <g>
       <use style="stroke:#000000;stroke-width:0.8;" x="54" xlink:href="#m6e5d7c78a2" y="252"/>
      </g>
     </g>
     <g id="text_15">
      <!-- 0 -->
      <g transform="translate(40.6375 255.799219)scale(0.1 -0.1)">
       <use xlink:href="#DejaVuSans-48"/>
      </g>
     </g>
    </g>
    <g id="ytick_2">
     <g id="line2d_15">
      <g>
       <use style="stroke:#000000;stroke-width:0.8;" x="54" xlink:href="#m6e5d7c78a2" y="227.443411"/>
      </g>
     </g>
     <g id="text_16">
      <!-- 1000 -->
      <g transform="translate(21.55 231.24263)scale(0.1 -0.1)">
       <use xlink:href="#DejaVuSans-49"/>
       <use x="63.623047" xlink:href="#DejaVuSans-48"/>
       <use x="127.246094" xlink:href="#DejaVuSans-48"/>
       <use x="190.869141" xlink:href="#DejaVuSans-48"/>
      </g>
     </g>
    </g>
    <g id="ytick_3">
     <g id="line2d_16">
      <g>
       <use style="stroke:#000000;stroke-width:0.8;" x="54" xlink:href="#m6e5d7c78a2" y="202.886822"/>
      </g>
     </g>
     <g id="text_17">
      <!-- 2000 -->
      <g transform="translate(21.55 206.686041)scale(0.1 -0.1)">
       <use xlink:href="#DejaVuSans-50"/>
       <use x="63.623047" xlink:href="#DejaVuSans-48"/>
       <use x="127.246094" xlink:href="#DejaVuSans-48"/>
       <use x="190.869141" xlink:href="#DejaVuSans-48"/>
      </g>
     </g>
    </g>
    <g id="ytick_4">
     <g id="line2d_17">
      <g>
       <use style="stroke:#000000;stroke-width:0.8;" x="54" xlink:href="#m6e5d7c78a2" y="178.330233"/>
      </g>
     </g>
     <g id="text_18">
      <!-- 3000 -->
      <g transform="translate(21.55 182.129452)scale(0.1 -0.1)">
       <defs>
        <path d="M 40.578125 39.3125 
Q 47.65625 37.796875 51.625 33 
Q 55.609375 28.21875 55.609375 21.1875 
Q 55.609375 10.40625 48.1875 4.484375 
Q 40.765625 -1.421875 27.09375 -1.421875 
Q 22.515625 -1.421875 17.65625 -0.515625 
Q 12.796875 0.390625 7.625 2.203125 
L 7.625 11.71875 
Q 11.71875 9.328125 16.59375 8.109375 
Q 21.484375 6.890625 26.8125 6.890625 
Q 36.078125 6.890625 40.9375 10.546875 
Q 45.796875 14.203125 45.796875 21.1875 
Q 45.796875 27.640625 41.28125 31.265625 
Q 36.765625 34.90625 28.71875 34.90625 
L 20.21875 34.90625 
L 20.21875 43.015625 
L 29.109375 43.015625 
Q 36.375 43.015625 40.234375 45.921875 
Q 44.09375 48.828125 44.09375 54.296875 
Q 44.09375 59.90625 40.109375 62.90625 
Q 36.140625 65.921875 28.71875 65.921875 
Q 24.65625 65.921875 20.015625 65.03125 
Q 15.375 64.15625 9.8125 62.3125 
L 9.8125 71.09375 
Q 15.4375 72.65625 20.34375 73.4375 
Q 25.25 74.21875 29.59375 74.21875 
Q 40.828125 74.21875 47.359375 69.109375 
Q 53.90625 64.015625 53.90625 55.328125 
Q 53.90625 49.265625 50.4375 45.09375 
Q 46.96875 40.921875 40.578125 39.3125 
z
" id="DejaVuSans-51"/>
       </defs>
       <use xlink:href="#DejaVuSans-51"/>
       <use x="63.623047" xlink:href="#DejaVuSans-48"/>
       <use x="127.246094" xlink:href="#DejaVuSans-48"/>
       <use x="190.869141" xlink:href="#DejaVuSans-48"/>
      </g>
     </g>
    </g>
    <g id="ytick_5">
     <g id="line2d_18">
      <g>
       <use style="stroke:#000000;stroke-width:0.8;" x="54" xlink:href="#m6e5d7c78a2" y="153.773644"/>
      </g>
     </g>
     <g id="text_19">
      <!-- 4000 -->
      <g transform="translate(21.55 157.572863)scale(0.1 -0.1)">
       <use xlink:href="#DejaVuSans-52"/>
       <use x="63.623047" xlink:href="#DejaVuSans-48"/>
       <use x="127.246094" xlink:href="#DejaVuSans-48"/>
       <use x="190.869141" xlink:href="#DejaVuSans-48"/>
      </g>
     </g>
    </g>
    <g id="ytick_6">
     <g id="line2d_19">
      <g>
       <use style="stroke:#000000;stroke-width:0.8;" x="54" xlink:href="#m6e5d7c78a2" y="129.217055"/>
      </g>
     </g>
     <g id="text_20">
      <!-- 5000 -->
      <g transform="translate(21.55 133.016274)scale(0.1 -0.1)">
       <defs>
        <path d="M 10.796875 72.90625 
L 49.515625 72.90625 
L 49.515625 64.59375 
L 19.828125 64.59375 
L 19.828125 46.734375 
Q 21.96875 47.46875 24.109375 47.828125 
Q 26.265625 48.1875 28.421875 48.1875 
Q 40.625 48.1875 47.75 41.5 
Q 54.890625 34.8125 54.890625 23.390625 
Q 54.890625 11.625 47.5625 5.09375 
Q 40.234375 -1.421875 26.90625 -1.421875 
Q 22.3125 -1.421875 17.546875 -0.640625 
Q 12.796875 0.140625 7.71875 1.703125 
L 7.71875 11.625 
Q 12.109375 9.234375 16.796875 8.0625 
Q 21.484375 6.890625 26.703125 6.890625 
Q 35.15625 6.890625 40.078125 11.328125 
Q 45.015625 15.765625 45.015625 23.390625 
Q 45.015625 31 40.078125 35.4375 
Q 35.15625 39.890625 26.703125 39.890625 
Q 22.75 39.890625 18.8125 39.015625 
Q 14.890625 38.140625 10.796875 36.28125 
z
" id="DejaVuSans-53"/>
       </defs>
       <use xlink:href="#DejaVuSans-53"/>
       <use x="63.623047" xlink:href="#DejaVuSans-48"/>
       <use x="127.246094" xlink:href="#DejaVuSans-48"/>
       <use x="190.869141" xlink:href="#DejaVuSans-48"/>
      </g>
     </g>
    </g>
    <g id="ytick_7">
     <g id="line2d_20">
      <g>
       <use style="stroke:#000000;stroke-width:0.8;" x="54" xlink:href="#m6e5d7c78a2" y="104.660467"/>
      </g>
     </g>
     <g id="text_21">
      <!-- 6000 -->
      <g transform="translate(21.55 108.459685)scale(0.1 -0.1)">
       <use xlink:href="#DejaVuSans-54"/>
       <use x="63.623047" xlink:href="#DejaVuSans-48"/>
       <use x="127.246094" xlink:href="#DejaVuSans-48"/>
       <use x="190.869141" xlink:href="#DejaVuSans-48"/>
      </g>
     </g>
    </g>
    <g id="ytick_8">
     <g id="line2d_21">
      <g>
       <use style="stroke:#000000;stroke-width:0.8;" x="54" xlink:href="#m6e5d7c78a2" y="80.103878"/>
      </g>
     </g>
     <g id="text_22">
      <!-- 7000 -->
      <g transform="translate(21.55 83.903096)scale(0.1 -0.1)">
       <defs>
        <path d="M 8.203125 72.90625 
L 55.078125 72.90625 
L 55.078125 68.703125 
L 28.609375 0 
L 18.3125 0 
L 43.21875 64.59375 
L 8.203125 64.59375 
z
" id="DejaVuSans-55"/>
       </defs>
       <use xlink:href="#DejaVuSans-55"/>
       <use x="63.623047" xlink:href="#DejaVuSans-48"/>
       <use x="127.246094" xlink:href="#DejaVuSans-48"/>
       <use x="190.869141" xlink:href="#DejaVuSans-48"/>
      </g>
     </g>
    </g>
    <g id="ytick_9">
     <g id="line2d_22">
      <g>
       <use style="stroke:#000000;stroke-width:0.8;" x="54" xlink:href="#m6e5d7c78a2" y="55.547289"/>
      </g>
     </g>
     <g id="text_23">
      <!-- 8000 -->
      <g transform="translate(21.55 59.346507)scale(0.1 -0.1)">
       <use xlink:href="#DejaVuSans-56"/>
       <use x="63.623047" xlink:href="#DejaVuSans-48"/>
       <use x="127.246094" xlink:href="#DejaVuSans-48"/>
       <use x="190.869141" xlink:href="#DejaVuSans-48"/>
      </g>
     </g>
    </g>
    <g id="text_24">
     <!-- Number of diffraction data sets -->
     <g transform="translate(15.470312 221.58)rotate(-90)scale(0.1 -0.1)">
      <defs>
       <path d="M 9.8125 72.90625 
L 23.09375 72.90625 
L 55.421875 11.921875 
L 55.421875 72.90625 
L 64.984375 72.90625 
L 64.984375 0 
L 51.703125 0 
L 19.390625 60.984375 
L 19.390625 0 
L 9.8125 0 
z
" id="DejaVuSans-78"/>
       <path d="M 8.5 21.578125 
L 8.5 54.6875 
L 17.484375 54.6875 
L 17.484375 21.921875 
Q 17.484375 14.15625 20.5 10.265625 
Q 23.53125 6.390625 29.59375 6.390625 
Q 36.859375 6.390625 41.078125 11.03125 
Q 45.3125 15.671875 45.3125 23.6875 
L 45.3125 54.6875 
L 54.296875 54.6875 
L 54.296875 0 
L 45.3125 0 
L 45.3125 8.40625 
Q 42.046875 3.421875 37.71875 1 
Q 33.40625 -1.421875 27.6875 -1.421875 
Q 18.265625 -1.421875 13.375 4.4375 
Q 8.5 10.296875 8.5 21.578125 
z
M 31.109375 56 
z
" id="DejaVuSans-117"/>
       <path d="M 52 44.1875 
Q 55.375 50.25 60.0625 53.125 
Q 64.75 56 71.09375 56 
Q 79.640625 56 84.28125 50.015625 
Q 88.921875 44.046875 88.921875 33.015625 
L 88.921875 0 
L 79.890625 0 
L 79.890625 32.71875 
Q 79.890625 40.578125 77.09375 44.375 
Q 74.3125 48.1875 68.609375 48.1875 
Q 61.625 48.1875 57.5625 43.546875 
Q 53.515625 38.921875 53.515625 30.90625 
L 53.515625 0 
L 44.484375 0 
L 44.484375 32.71875 
Q 44.484375 40.625 41.703125 44.40625 
Q 38.921875 48.1875 33.109375 48.1875 
Q 26.21875 48.1875 22.15625 43.53125 
Q 18.109375 38.875 18.109375 30.90625 
L 18.109375 0 
L 9.078125 0 
L 9.078125 54.6875 
L 18.109375 54.6875 
L 18.109375 46.1875 
Q 21.1875 51.21875 25.484375 53.609375 
Q 29.78125 56 35.6875 56 
Q 41.65625 56 45.828125 52.96875 
Q 50 49.953125 52 44.1875 
z
" id="DejaVuSans-109"/>
       <path d="M 48.6875 27.296875 
Q 48.6875 37.203125 44.609375 42.84375 
Q 40.53125 48.484375 33.40625 48.484375 
Q 26.265625 48.484375 22.1875 42.84375 
Q 18.109375 37.203125 18.109375 27.296875 
Q 18.109375 17.390625 22.1875 11.75 
Q 26.265625 6.109375 33.40625 6.109375 
Q 40.53125 6.109375 44.609375 11.75 
Q 48.6875 17.390625 48.6875 27.296875 
z
M 18.109375 46.390625 
Q 20.953125 51.265625 25.265625 53.625 
Q 29.59375 56 35.59375 56 
Q 45.5625 56 51.78125 48.09375 
Q 58.015625 40.1875 58.015625 27.296875 
Q 58.015625 14.40625 51.78125 6.484375 
Q 45.5625 -1.421875 35.59375 -1.421875 
Q 29.59375 -1.421875 25.265625 0.953125 
Q 20.953125 3.328125 18.109375 8.203125 
L 18.109375 0 
L 9.078125 0 
L 9.078125 75.984375 
L 18.109375 75.984375 
z
" id="DejaVuSans-98"/>
       <path d="M 41.109375 46.296875 
Q 39.59375 47.171875 37.8125 47.578125 
Q 36.03125 48 33.890625 48 
Q 26.265625 48 22.1875 43.046875 
Q 18.109375 38.09375 18.109375 28.8125 
L 18.109375 0 
L 9.078125 0 
L 9.078125 54.6875 
L 18.109375 54.6875 
L 18.109375 46.1875 
Q 20.953125 51.171875 25.484375 53.578125 
Q 30.03125 56 36.53125 56 
Q 37.453125 56 38.578125 55.875 
Q 39.703125 55.765625 41.0625 55.515625 
z
" id="DejaVuSans-114"/>
       <path d="M 37.109375 75.984375 
L 37.109375 68.5 
L 28.515625 68.5 
Q 23.6875 68.5 21.796875 66.546875 
Q 19.921875 64.59375 19.921875 59.515625 
L 19.921875 54.6875 
L 34.71875 54.6875 
L 34.71875 47.703125 
L 19.921875 47.703125 
L 19.921875 0 
L 10.890625 0 
L 10.890625 47.703125 
L 2.296875 47.703125 
L 2.296875 54.6875 
L 10.890625 54.6875 
L 10.890625 58.5 
Q 10.890625 67.625 15.140625 71.796875 
Q 19.390625 75.984375 28.609375 75.984375 
z
" id="DejaVuSans-102"/>
       <path d="M 45.40625 46.390625 
L 45.40625 75.984375 
L 54.390625 75.984375 
L 54.390625 0 
L 45.40625 0 
L 45.40625 8.203125 
Q 42.578125 3.328125 38.25 0.953125 
Q 33.9375 -1.421875 27.875 -1.421875 
Q 17.96875 -1.421875 11.734375 6.484375 
Q 5.515625 14.40625 5.515625 27.296875 
Q 5.515625 40.1875 11.734375 48.09375 
Q 17.96875 56 27.875 56 
Q 33.9375 56 38.25 53.625 
Q 42.578125 51.265625 45.40625 46.390625 
z
M 14.796875 27.296875 
Q 14.796875 17.390625 18.875 11.75 
Q 22.953125 6.109375 30.078125 6.109375 
Q 37.203125 6.109375 41.296875 11.75 
Q 45.40625 17.390625 45.40625 27.296875 
Q 45.40625 37.203125 41.296875 42.84375 
Q 37.203125 48.484375 30.078125 48.484375 
Q 22.953125 48.484375 18.875 42.84375 
Q 14.796875 37.203125 14.796875 27.296875 
z
" id="DejaVuSans-100"/>
       <path d="M 48.78125 52.59375 
L 48.78125 44.1875 
Q 44.96875 46.296875 41.140625 47.34375 
Q 37.3125 48.390625 33.40625 48.390625 
Q 24.65625 48.390625 19.8125 42.84375 
Q 14.984375 37.3125 14.984375 27.296875 
Q 14.984375 17.28125 19.8125 11.734375 
Q 24.65625 6.203125 33.40625 6.203125 
Q 37.3125 6.203125 41.140625 7.25 
Q 44.96875 8.296875 48.78125 10.40625 
L 48.78125 2.09375 
Q 45.015625 0.34375 40.984375 -0.53125 
Q 36.96875 -1.421875 32.421875 -1.421875 
Q 20.0625 -1.421875 12.78125 6.34375 
Q 5.515625 14.109375 5.515625 27.296875 
Q 5.515625 40.671875 12.859375 48.328125 
Q 20.21875 56 33.015625 56 
Q 37.15625 56 41.109375 55.140625 
Q 45.0625 54.296875 48.78125 52.59375 
z
" id="DejaVuSans-99"/>
      </defs>
      <use xlink:href="#DejaVuSans-78"/>
      <use x="74.804688" xlink:href="#DejaVuSans-117"/>
      <use x="138.183594" xlink:href="#DejaVuSans-109"/>
      <use x="235.595703" xlink:href="#DejaVuSans-98"/>
      <use x="299.072266" xlink:href="#DejaVuSans-101"/>
      <use x="360.595703" xlink:href="#DejaVuSans-114"/>
      <use x="401.708984" xlink:href="#DejaVuSans-32"/>
      <use x="433.496094" xlink:href="#DejaVuSans-111"/>
      <use x="494.677734" xlink:href="#DejaVuSans-102"/>
      <use x="529.882812" xlink:href="#DejaVuSans-32"/>
      <use x="561.669922" xlink:href="#DejaVuSans-100"/>
      <use x="625.146484" xlink:href="#DejaVuSans-105"/>
      <use x="652.929688" xlink:href="#DejaVuSans-102"/>
      <use x="688.134766" xlink:href="#DejaVuSans-102"/>
      <use x="723.339844" xlink:href="#DejaVuSans-114"/>
      <use x="764.453125" xlink:href="#DejaVuSans-97"/>
      <use x="825.732422" xlink:href="#DejaVuSans-99"/>
      <use x="880.712891" xlink:href="#DejaVuSans-116"/>
      <use x="919.921875" xlink:href="#DejaVuSans-105"/>
      <use x="947.705078" xlink:href="#DejaVuSans-111"/>
      <use x="1008.886719" xlink:href="#DejaVuSans-110"/>
      <use x="1072.265625" xlink:href="#DejaVuSans-32"/>
      <use x="1104.052734" xlink:href="#DejaVuSans-100"/>
      <use x="1167.529297" xlink:href="#DejaVuSans-97"/>
      <use x="1228.808594" xlink:href="#DejaVuSans-116"/>
      <use x="1268.017578" xlink:href="#DejaVuSans-97"/>
      <use x="1329.296875" xlink:href="#DejaVuSans-32"/>
      <use x="1361.083984" xlink:href="#DejaVuSans-115"/>
      <use x="1413.183594" xlink:href="#DejaVuSans-101"/>
      <use x="1474.707031" xlink:href="#DejaVuSans-116"/>
      <use x="1513.916016" xlink:href="#DejaVuSans-115"/>
     </g>
    </g>
   </g>
   <g id="line2d_23">
    <path clip-path="url(#p07c494f9ba)" d="M 73.315385 251.975443 
" style="fill:none;stroke:#483d8b;stroke-linecap:square;stroke-width:1.5;"/>
   </g>
   <g id="patch_55">
    <path d="M 54 252 
L 54 34.56 
" style="fill:none;stroke:#000000;stroke-linecap:square;stroke-linejoin:miter;stroke-width:0.8;"/>
   </g>
   <g id="patch_56">
    <path d="M 388.8 252 
L 388.8 34.56 
" style="fill:none;stroke:#000000;stroke-linecap:square;stroke-linejoin:miter;stroke-width:0.8;"/>
   </g>
   <g id="patch_57">
    <path d="M 54 252 
L 388.8 252 
" style="fill:none;stroke:#000000;stroke-linecap:square;stroke-linejoin:miter;stroke-width:0.8;"/>
   </g>
   <g id="patch_58">
    <path d="M 54 34.56 
L 388.8 34.56 
" style="fill:none;stroke:#000000;stroke-linecap:square;stroke-linejoin:miter;stroke-width:0.8;"/>
   </g>
   <g id="legend_1">
    <g id="patch_59">
     <path d="M 61 86.594375 
L 242.35 86.594375 
Q 244.35 86.594375 244.35 84.594375 
L 244.35 41.56 
Q 244.35 39.56 242.35 39.56 
L 61 39.56 
Q 59 39.56 59 41.56 
L 59 84.594375 
Q 59 86.594375 61 86.594375 
z
" style="fill:#ffffff;opacity:0.8;stroke:#cccccc;stroke-linejoin:miter;"/>
    </g>
    <g id="line2d_24">
     <path d="M 63 47.658438 
L 83 47.658438 
" style="fill:none;stroke:#483d8b;stroke-linecap:square;stroke-width:1.5;"/>
    </g>
    <g id="line2d_25"/>
    <g id="text_25">
     <!-- fraction of contamination -->
     <g transform="translate(91 51.158438)scale(0.1 -0.1)">
      <use xlink:href="#DejaVuSans-102"/>
      <use x="35.205078" xlink:href="#DejaVuSans-114"/>
      <use x="76.318359" xlink:href="#DejaVuSans-97"/>
      <use x="137.597656" xlink:href="#DejaVuSans-99"/>
      <use x="192.578125" xlink:href="#DejaVuSans-116"/>
      <use x="231.787109" xlink:href="#DejaVuSans-105"/>
      <use x="259.570312" xlink:href="#DejaVuSans-111"/>
      <use x="320.751953" xlink:href="#DejaVuSans-110"/>
      <use x="384.130859" xlink:href="#DejaVuSans-32"/>
      <use x="415.917969" xlink:href="#DejaVuSans-111"/>
      <use x="477.099609" xlink:href="#DejaVuSans-102"/>
      <use x="512.304688" xlink:href="#DejaVuSans-32"/>
      <use x="544.091797" xlink:href="#DejaVuSans-99"/>
      <use x="599.072266" xlink:href="#DejaVuSans-111"/>
      <use x="660.253906" xlink:href="#DejaVuSans-110"/>
      <use x="723.632812" xlink:href="#DejaVuSans-116"/>
      <use x="762.841797" xlink:href="#DejaVuSans-97"/>
      <use x="824.121094" xlink:href="#DejaVuSans-109"/>
      <use x="921.533203" xlink:href="#DejaVuSans-105"/>
      <use x="949.316406" xlink:href="#DejaVuSans-110"/>
      <use x="1012.695312" xlink:href="#DejaVuSans-97"/>
      <use x="1073.974609" xlink:href="#DejaVuSans-116"/>
      <use x="1113.183594" xlink:href="#DejaVuSans-105"/>
      <use x="1140.966797" xlink:href="#DejaVuSans-111"/>
      <use x="1202.148438" xlink:href="#DejaVuSans-110"/>
     </g>
    </g>
    <g id="patch_60">
     <path d="M 63 65.836563 
L 83 65.836563 
L 83 58.836563 
L 63 58.836563 
z
" style="fill:#8fbc8f;opacity:0.5;stroke:#000000;stroke-linejoin:miter;"/>
    </g>
    <g id="text_26">
     <!-- deposited diffraction data -->
     <g transform="translate(91 65.836563)scale(0.1 -0.1)">
      <use xlink:href="#DejaVuSans-100"/>
      <use x="63.476562" xlink:href="#DejaVuSans-101"/>
      <use x="125" xlink:href="#DejaVuSans-112"/>
      <use x="188.476562" xlink:href="#DejaVuSans-111"/>
      <use x="249.658203" xlink:href="#DejaVuSans-115"/>
      <use x="301.757812" xlink:href="#DejaVuSans-105"/>
      <use x="329.541016" xlink:href="#DejaVuSans-116"/>
      <use x="368.75" xlink:href="#DejaVuSans-101"/>
      <use x="430.273438" xlink:href="#DejaVuSans-100"/>
      <use x="493.75" xlink:href="#DejaVuSans-32"/>
      <use x="525.537109" xlink:href="#DejaVuSans-100"/>
      <use x="589.013672" xlink:href="#DejaVuSans-105"/>
      <use x="616.796875" xlink:href="#DejaVuSans-102"/>
      <use x="652.001953" xlink:href="#DejaVuSans-102"/>
      <use x="687.207031" xlink:href="#DejaVuSans-114"/>
      <use x="728.320312" xlink:href="#DejaVuSans-97"/>
      <use x="789.599609" xlink:href="#DejaVuSans-99"/>
      <use x="844.580078" xlink:href="#DejaVuSans-116"/>
      <use x="883.789062" xlink:href="#DejaVuSans-105"/>
      <use x="911.572266" xlink:href="#DejaVuSans-111"/>
      <use x="972.753906" xlink:href="#DejaVuSans-110"/>
      <use x="1036.132812" xlink:href="#DejaVuSans-32"/>
      <use x="1067.919922" xlink:href="#DejaVuSans-100"/>
      <use x="1131.396484" xlink:href="#DejaVuSans-97"/>
      <use x="1192.675781" xlink:href="#DejaVuSans-116"/>
      <use x="1231.884766" xlink:href="#DejaVuSans-97"/>
     </g>
    </g>
    <g id="patch_61">
     <path d="M 63 80.514688 
L 83 80.514688 
L 83 73.514688 
L 63 73.514688 
z
" style="fill:#4682b4;opacity:0.5;stroke:#000000;stroke-linejoin:miter;"/>
    </g>
    <g id="text_27">
     <!-- contaminated diffraction data -->
     <g transform="translate(91 80.514688)scale(0.1 -0.1)">
      <use xlink:href="#DejaVuSans-99"/>
      <use x="54.980469" xlink:href="#DejaVuSans-111"/>
      <use x="116.162109" xlink:href="#DejaVuSans-110"/>
      <use x="179.541016" xlink:href="#DejaVuSans-116"/>
      <use x="218.75" xlink:href="#DejaVuSans-97"/>
      <use x="280.029297" xlink:href="#DejaVuSans-109"/>
      <use x="377.441406" xlink:href="#DejaVuSans-105"/>
      <use x="405.224609" xlink:href="#DejaVuSans-110"/>
      <use x="468.603516" xlink:href="#DejaVuSans-97"/>
      <use x="529.882812" xlink:href="#DejaVuSans-116"/>
      <use x="569.091797" xlink:href="#DejaVuSans-101"/>
      <use x="630.615234" xlink:href="#DejaVuSans-100"/>
      <use x="694.091797" xlink:href="#DejaVuSans-32"/>
      <use x="725.878906" xlink:href="#DejaVuSans-100"/>
      <use x="789.355469" xlink:href="#DejaVuSans-105"/>
      <use x="817.138672" xlink:href="#DejaVuSans-102"/>
      <use x="852.34375" xlink:href="#DejaVuSans-102"/>
      <use x="887.548828" xlink:href="#DejaVuSans-114"/>
      <use x="928.662109" xlink:href="#DejaVuSans-97"/>
      <use x="989.941406" xlink:href="#DejaVuSans-99"/>
      <use x="1044.921875" xlink:href="#DejaVuSans-116"/>
      <use x="1084.130859" xlink:href="#DejaVuSans-105"/>
      <use x="1111.914062" xlink:href="#DejaVuSans-111"/>
      <use x="1173.095703" xlink:href="#DejaVuSans-110"/>
      <use x="1236.474609" xlink:href="#DejaVuSans-32"/>
      <use x="1268.261719" xlink:href="#DejaVuSans-100"/>
      <use x="1331.738281" xlink:href="#DejaVuSans-97"/>
      <use x="1393.017578" xlink:href="#DejaVuSans-116"/>
      <use x="1432.226562" xlink:href="#DejaVuSans-97"/>
     </g>
    </g>
   </g>
  </g>
 </g>
 <defs>
  <clipPath id="p07c494f9ba">
   <rect height="217.44" width="334.8" x="54" y="34.56"/>
  </clipPath>
 </defs>
</svg>
